<?xml version="1.0" encoding="UTF-8" standalone="no"?>
<!DOCTYPE svg PUBLIC "-//W3C//DTD SVG 1.1//EN"
 "http://www.w3.org/Graphics/SVG/1.1/DTD/svg11.dtd">
<!-- Generated by graphviz version 2.43.0 (0)
 -->
<!-- Title: snakemake_dag Pages: 1 -->
<svg width="609pt" height="492pt"
 viewBox="0.00 0.00 609.00 492.00" xmlns="http://www.w3.org/2000/svg" xmlns:xlink="http://www.w3.org/1999/xlink">
<g id="graph0" class="graph" transform="scale(1 1) rotate(0) translate(4 488)">
<title>snakemake_dag</title>
<polygon fill="white" stroke="transparent" points="-4,4 -4,-488 605,-488 605,4 -4,4"/>
<!-- 0 -->
<g id="node1" class="node">
<title>0</title>
<path fill="none" stroke="#d88556" stroke-width="2" stroke-dasharray="5,2" d="M147,-36C147,-36 117,-36 117,-36 111,-36 105,-30 105,-24 105,-24 105,-12 105,-12 105,-6 111,0 117,0 117,0 147,0 147,0 153,0 159,-6 159,-12 159,-12 159,-24 159,-24 159,-30 153,-36 147,-36"/>
<text text-anchor="middle" x="132" y="-15.5" font-family="sans" font-size="10.00">abc</text>
</g>
<!-- 1 -->
<g id="node2" class="node">
<title>1</title>
<path fill="none" stroke="#56d8c9" stroke-width="2" stroke-dasharray="5,2" d="M309,-108C309,-108 279,-108 279,-108 273,-108 267,-102 267,-96 267,-96 267,-84 267,-84 267,-78 273,-72 279,-72 279,-72 309,-72 309,-72 315,-72 321,-78 321,-84 321,-84 321,-96 321,-96 321,-102 315,-108 309,-108"/>
<text text-anchor="middle" x="294" y="-87.5" font-family="sans" font-size="10.00">reftable</text>
</g>
<!-- 1&#45;&gt;0 -->
<g id="edge1" class="edge">
<title>1&#45;&gt;0</title>
<path fill="none" stroke="grey" stroke-width="2" d="M266.88,-77.28C239.9,-65.62 198.32,-47.65 168.45,-34.75"/>
<polygon fill="grey" stroke="grey" stroke-width="2" points="169.77,-31.51 159.2,-30.75 167,-37.93 169.77,-31.51"/>
</g>
<!-- 2 -->
<g id="node3" class="node">
<title>2</title>
<path fill="none" stroke="#ced856" stroke-width="2" stroke-dasharray="5,2" d="M324.5,-412C324.5,-412 279.5,-412 279.5,-412 273.5,-412 267.5,-406 267.5,-400 267.5,-400 267.5,-388 267.5,-388 267.5,-382 273.5,-376 279.5,-376 279.5,-376 324.5,-376 324.5,-376 330.5,-376 336.5,-382 336.5,-388 336.5,-388 336.5,-400 336.5,-400 336.5,-406 330.5,-412 324.5,-412"/>
<text text-anchor="middle" x="302" y="-391.5" font-family="sans" font-size="10.00">getparams</text>
</g>
<!-- 2&#45;&gt;0 -->
<g id="edge2" class="edge">
<title>2&#45;&gt;0</title>
<path fill="none" stroke="grey" stroke-width="2" d="M267.36,-390.83C188.03,-383.8 0,-354.53 0,-235 0,-235 0,-235 0,-161 0,-104.44 56.87,-60.95 95.95,-37.74"/>
<polygon fill="grey" stroke="grey" stroke-width="2" points="98.05,-40.58 104.97,-32.56 94.56,-34.51 98.05,-40.58"/>
</g>
<!-- 4 -->
<g id="node5" class="node">
<title>4</title>
<path fill="none" stroke="#56d89a" stroke-width="2" stroke-dasharray="5,2" d="M210,-180C210,-180 180,-180 180,-180 174,-180 168,-174 168,-168 168,-168 168,-156 168,-156 168,-150 174,-144 180,-144 180,-144 210,-144 210,-144 216,-144 222,-150 222,-156 222,-156 222,-168 222,-168 222,-174 216,-180 210,-180"/>
<text text-anchor="middle" x="195" y="-159.5" font-family="sans" font-size="10.00">mutsim</text>
</g>
<!-- 2&#45;&gt;4 -->
<g id="edge11" class="edge">
<title>2&#45;&gt;4</title>
<path fill="none" stroke="grey" stroke-width="2" d="M293.96,-375.71C275.4,-335.82 229.48,-237.12 207.34,-189.52"/>
<polygon fill="grey" stroke="grey" stroke-width="2" points="210.38,-187.76 202.99,-180.17 204.03,-190.72 210.38,-187.76"/>
</g>
<!-- 5 -->
<g id="node6" class="node">
<title>5</title>
<path fill="none" stroke="#56d89a" stroke-width="2" stroke-dasharray="5,2" d="M282,-180C282,-180 252,-180 252,-180 246,-180 240,-174 240,-168 240,-168 240,-156 240,-156 240,-150 246,-144 252,-144 252,-144 282,-144 282,-144 288,-144 294,-150 294,-156 294,-156 294,-168 294,-168 294,-174 288,-180 282,-180"/>
<text text-anchor="middle" x="267" y="-159.5" font-family="sans" font-size="10.00">mutsim</text>
</g>
<!-- 2&#45;&gt;5 -->
<g id="edge14" class="edge">
<title>2&#45;&gt;5</title>
<path fill="none" stroke="grey" stroke-width="2" d="M299.37,-375.71C293.32,-335.99 278.4,-237.95 271.13,-190.12"/>
<polygon fill="grey" stroke="grey" stroke-width="2" points="274.58,-189.53 269.61,-180.17 267.66,-190.59 274.58,-189.53"/>
</g>
<!-- 6 -->
<g id="node7" class="node">
<title>6</title>
<path fill="none" stroke="#56d89a" stroke-width="2" stroke-dasharray="5,2" d="M438,-180C438,-180 408,-180 408,-180 402,-180 396,-174 396,-168 396,-168 396,-156 396,-156 396,-150 402,-144 408,-144 408,-144 438,-144 438,-144 444,-144 450,-150 450,-156 450,-156 450,-168 450,-168 450,-174 444,-180 438,-180"/>
<text text-anchor="middle" x="423" y="-159.5" font-family="sans" font-size="10.00">mutsim</text>
</g>
<!-- 2&#45;&gt;6 -->
<g id="edge17" class="edge">
<title>2&#45;&gt;6</title>
<path fill="none" stroke="grey" stroke-width="2" d="M310.23,-375.79C320.3,-354.89 337.97,-318.64 354,-288 372.04,-253.53 393.89,-214.34 408.11,-189.18"/>
<polygon fill="grey" stroke="grey" stroke-width="2" points="411.27,-190.69 413.15,-180.26 405.18,-187.24 411.27,-190.69"/>
</g>
<!-- 7 -->
<g id="node8" class="node">
<title>7</title>
<path fill="none" stroke="#56b1d8" stroke-width="2" stroke-dasharray="5,2" d="M171,-252C171,-252 139,-252 139,-252 133,-252 127,-246 127,-240 127,-240 127,-228 127,-228 127,-222 133,-216 139,-216 139,-216 171,-216 171,-216 177,-216 183,-222 183,-228 183,-228 183,-240 183,-240 183,-246 177,-252 171,-252"/>
<text text-anchor="middle" x="155" y="-231.5" font-family="sans" font-size="10.00">forwsim</text>
</g>
<!-- 2&#45;&gt;7 -->
<g id="edge20" class="edge">
<title>2&#45;&gt;7</title>
<path fill="none" stroke="grey" stroke-width="2" d="M267.35,-378.16C249.22,-369.11 227.62,-356.17 212,-340 190.03,-317.26 174.02,-284.37 164.65,-261.48"/>
<polygon fill="grey" stroke="grey" stroke-width="2" points="167.86,-260.06 160.93,-252.04 161.34,-262.63 167.86,-260.06"/>
</g>
<!-- 8 -->
<g id="node9" class="node">
<title>8</title>
<path fill="none" stroke="#56b1d8" stroke-width="2" stroke-dasharray="5,2" d="M336,-252C336,-252 304,-252 304,-252 298,-252 292,-246 292,-240 292,-240 292,-228 292,-228 292,-222 298,-216 304,-216 304,-216 336,-216 336,-216 342,-216 348,-222 348,-228 348,-228 348,-240 348,-240 348,-246 342,-252 336,-252"/>
<text text-anchor="middle" x="320" y="-231.5" font-family="sans" font-size="10.00">forwsim</text>
</g>
<!-- 2&#45;&gt;8 -->
<g id="edge22" class="edge">
<title>2&#45;&gt;8</title>
<path fill="none" stroke="grey" stroke-width="2" d="M303.96,-375.79C307.07,-348.48 313.17,-294.99 316.88,-262.38"/>
<polygon fill="grey" stroke="grey" stroke-width="2" points="320.39,-262.52 318.04,-252.19 313.43,-261.73 320.39,-262.52"/>
</g>
<!-- 9 -->
<g id="node10" class="node">
<title>9</title>
<path fill="none" stroke="#56b1d8" stroke-width="2" stroke-dasharray="5,2" d="M448,-252C448,-252 416,-252 416,-252 410,-252 404,-246 404,-240 404,-240 404,-228 404,-228 404,-222 410,-216 416,-216 416,-216 448,-216 448,-216 454,-216 460,-222 460,-228 460,-228 460,-240 460,-240 460,-246 454,-252 448,-252"/>
<text text-anchor="middle" x="432" y="-231.5" font-family="sans" font-size="10.00">forwsim</text>
</g>
<!-- 2&#45;&gt;9 -->
<g id="edge24" class="edge">
<title>2&#45;&gt;9</title>
<path fill="none" stroke="grey" stroke-width="2" d="M319.96,-375.91C330.28,-365.79 343.28,-352.54 354,-340 376.18,-314.06 399.2,-282.39 414.43,-260.65"/>
<polygon fill="grey" stroke="grey" stroke-width="2" points="417.42,-262.49 420.26,-252.28 411.67,-258.49 417.42,-262.49"/>
</g>
<!-- 10 -->
<g id="node11" class="node">
<title>10</title>
<path fill="none" stroke="#d8b456" stroke-width="2" stroke-dasharray="5,2" d="M147.5,-340C147.5,-340 116.5,-340 116.5,-340 110.5,-340 104.5,-334 104.5,-328 104.5,-328 104.5,-300 104.5,-300 104.5,-294 110.5,-288 116.5,-288 116.5,-288 147.5,-288 147.5,-288 153.5,-288 159.5,-294 159.5,-300 159.5,-300 159.5,-328 159.5,-328 159.5,-334 153.5,-340 147.5,-340"/>
<text text-anchor="middle" x="132" y="-328" font-family="sans" font-size="10.00">coalsim</text>
<text text-anchor="middle" x="132" y="-317" font-family="sans" font-size="10.00">b: 1</text>
<text text-anchor="middle" x="132" y="-306" font-family="sans" font-size="10.00">p: test</text>
<text text-anchor="middle" x="132" y="-295" font-family="sans" font-size="10.00">s: 1</text>
</g>
<!-- 2&#45;&gt;10 -->
<g id="edge26" class="edge">
<title>2&#45;&gt;10</title>
<path fill="none" stroke="grey" stroke-width="2" d="M267.44,-380.25C241.34,-370.25 204.85,-355.47 174,-340 172.24,-339.12 170.45,-338.19 168.65,-337.23"/>
<polygon fill="grey" stroke="grey" stroke-width="2" points="170.14,-334.05 159.7,-332.25 166.74,-340.17 170.14,-334.05"/>
</g>
<!-- 11 -->
<g id="node12" class="node">
<title>11</title>
<path fill="none" stroke="#d8b456" stroke-width="2" stroke-dasharray="5,2" d="M449.5,-340C449.5,-340 418.5,-340 418.5,-340 412.5,-340 406.5,-334 406.5,-328 406.5,-328 406.5,-300 406.5,-300 406.5,-294 412.5,-288 418.5,-288 418.5,-288 449.5,-288 449.5,-288 455.5,-288 461.5,-294 461.5,-300 461.5,-300 461.5,-328 461.5,-328 461.5,-334 455.5,-340 449.5,-340"/>
<text text-anchor="middle" x="434" y="-328" font-family="sans" font-size="10.00">coalsim</text>
<text text-anchor="middle" x="434" y="-317" font-family="sans" font-size="10.00">b: 1</text>
<text text-anchor="middle" x="434" y="-306" font-family="sans" font-size="10.00">p: test</text>
<text text-anchor="middle" x="434" y="-295" font-family="sans" font-size="10.00">s: 2</text>
</g>
<!-- 2&#45;&gt;11 -->
<g id="edge28" class="edge">
<title>2&#45;&gt;11</title>
<path fill="none" stroke="grey" stroke-width="2" d="M331.2,-375.85C348.82,-365.49 371.72,-352.01 392,-340 393.9,-338.88 395.84,-337.72 397.81,-336.56"/>
<polygon fill="grey" stroke="grey" stroke-width="2" points="399.64,-339.54 406.45,-331.42 396.06,-333.52 399.64,-339.54"/>
</g>
<!-- 12 -->
<g id="node13" class="node">
<title>12</title>
<path fill="none" stroke="#d8b456" stroke-width="2" stroke-dasharray="5,2" d="M522.5,-340C522.5,-340 491.5,-340 491.5,-340 485.5,-340 479.5,-334 479.5,-328 479.5,-328 479.5,-300 479.5,-300 479.5,-294 485.5,-288 491.5,-288 491.5,-288 522.5,-288 522.5,-288 528.5,-288 534.5,-294 534.5,-300 534.5,-300 534.5,-328 534.5,-328 534.5,-334 528.5,-340 522.5,-340"/>
<text text-anchor="middle" x="507" y="-328" font-family="sans" font-size="10.00">coalsim</text>
<text text-anchor="middle" x="507" y="-317" font-family="sans" font-size="10.00">b: 1</text>
<text text-anchor="middle" x="507" y="-306" font-family="sans" font-size="10.00">p: test</text>
<text text-anchor="middle" x="507" y="-295" font-family="sans" font-size="10.00">s: 3</text>
</g>
<!-- 2&#45;&gt;12 -->
<g id="edge30" class="edge">
<title>2&#45;&gt;12</title>
<path fill="none" stroke="grey" stroke-width="2" d="M336.57,-385.21C371.33,-376.66 425.94,-361.28 470,-340 470.1,-339.95 470.19,-339.91 470.29,-339.86"/>
<polygon fill="grey" stroke="grey" stroke-width="2" points="472.12,-342.85 479.22,-334.99 468.77,-336.7 472.12,-342.85"/>
</g>
<!-- 3 -->
<g id="node4" class="node">
<title>3</title>
<path fill="none" stroke="#d85656" stroke-width="2" stroke-dasharray="5,2" d="M388.5,-484C388.5,-484 347.5,-484 347.5,-484 341.5,-484 335.5,-478 335.5,-472 335.5,-472 335.5,-460 335.5,-460 335.5,-454 341.5,-448 347.5,-448 347.5,-448 388.5,-448 388.5,-448 394.5,-448 400.5,-454 400.5,-460 400.5,-460 400.5,-472 400.5,-472 400.5,-478 394.5,-484 388.5,-484"/>
<text text-anchor="middle" x="368" y="-463.5" font-family="sans" font-size="10.00">setproject</text>
</g>
<!-- 3&#45;&gt;1 -->
<g id="edge3" class="edge">
<title>3&#45;&gt;1</title>
<path fill="none" stroke="grey" stroke-width="2" d="M400.89,-459.59C465.12,-446.93 601,-409.05 601,-315 601,-315 601,-315 601,-233 601,-115.42 413.2,-94.9 331.37,-91.54"/>
<polygon fill="grey" stroke="grey" stroke-width="2" points="331.36,-88.04 321.24,-91.19 331.12,-95.03 331.36,-88.04"/>
</g>
<!-- 3&#45;&gt;2 -->
<g id="edge10" class="edge">
<title>3&#45;&gt;2</title>
<path fill="none" stroke="grey" stroke-width="2" d="M351.69,-447.7C343.69,-439.22 333.93,-428.86 325.18,-419.58"/>
<polygon fill="grey" stroke="grey" stroke-width="2" points="327.53,-416.98 318.13,-412.1 322.44,-421.78 327.53,-416.98"/>
</g>
<!-- 3&#45;&gt;4 -->
<g id="edge12" class="edge">
<title>3&#45;&gt;4</title>
<path fill="none" stroke="grey" stroke-width="2" d="M335.17,-465.85C284.56,-465.56 186.47,-458.43 121,-412 90.41,-390.31 87.16,-376.1 77,-340 62.02,-286.78 54.59,-260.8 87,-216 103.82,-192.75 133.69,-179.19 157.76,-171.62"/>
<polygon fill="grey" stroke="grey" stroke-width="2" points="159.04,-174.89 167.66,-168.73 157.08,-168.17 159.04,-174.89"/>
</g>
<!-- 3&#45;&gt;5 -->
<g id="edge15" class="edge">
<title>3&#45;&gt;5</title>
<path fill="none" stroke="grey" stroke-width="2" d="M335.2,-462.11C273.62,-454.66 142.66,-428.6 95,-340 68.45,-290.64 78.35,-255.62 118,-216 153.17,-180.85 178.9,-197.15 230.13,-179.87"/>
<polygon fill="grey" stroke="grey" stroke-width="2" points="231.47,-183.11 239.65,-176.38 229.05,-176.54 231.47,-183.11"/>
</g>
<!-- 3&#45;&gt;6 -->
<g id="edge18" class="edge">
<title>3&#45;&gt;6</title>
<path fill="none" stroke="grey" stroke-width="2" d="M400.83,-453C443.01,-435.54 514.23,-398.66 543,-340 572.03,-280.82 503.06,-218.58 458.07,-186"/>
<polygon fill="grey" stroke="grey" stroke-width="2" points="459.89,-183 449.71,-180.08 455.85,-188.71 459.89,-183"/>
</g>
<!-- 3&#45;&gt;10 -->
<g id="edge27" class="edge">
<title>3&#45;&gt;10</title>
<path fill="none" stroke="grey" stroke-width="2" d="M335.3,-451.39C312.92,-441.56 282.9,-427.35 258,-412 225.91,-392.21 192.2,-365.93 167.73,-345.72"/>
<polygon fill="grey" stroke="grey" stroke-width="2" points="169.73,-342.83 159.8,-339.11 165.25,-348.2 169.73,-342.83"/>
</g>
<!-- 3&#45;&gt;11 -->
<g id="edge29" class="edge">
<title>3&#45;&gt;11</title>
<path fill="none" stroke="grey" stroke-width="2" d="M375.57,-447.79C386.05,-423.98 405.21,-380.43 418.73,-349.71"/>
<polygon fill="grey" stroke="grey" stroke-width="2" points="422.08,-350.79 422.9,-340.23 415.67,-347.97 422.08,-350.79"/>
</g>
<!-- 3&#45;&gt;12 -->
<g id="edge31" class="edge">
<title>3&#45;&gt;12</title>
<path fill="none" stroke="grey" stroke-width="2" d="M383.95,-447.79C406.49,-423.46 448.13,-378.53 476.67,-347.73"/>
<polygon fill="grey" stroke="grey" stroke-width="2" points="479.39,-349.94 483.62,-340.23 474.26,-345.18 479.39,-349.94"/>
</g>
<!-- 4&#45;&gt;1 -->
<g id="edge4" class="edge">
<title>4&#45;&gt;1</title>
<path fill="none" stroke="grey" stroke-width="2" d="M219.22,-143.88C231.92,-134.89 247.66,-123.76 261.42,-114.03"/>
<polygon fill="grey" stroke="grey" stroke-width="2" points="263.54,-116.82 269.69,-108.19 259.5,-111.11 263.54,-116.82"/>
</g>
<!-- 5&#45;&gt;1 -->
<g id="edge5" class="edge">
<title>5&#45;&gt;1</title>
<path fill="none" stroke="grey" stroke-width="2" d="M273.67,-143.7C276.71,-135.81 280.38,-126.3 283.76,-117.55"/>
<polygon fill="grey" stroke="grey" stroke-width="2" points="287.07,-118.69 287.4,-108.1 280.54,-116.17 287.07,-118.69"/>
</g>
<!-- 6&#45;&gt;1 -->
<g id="edge6" class="edge">
<title>6&#45;&gt;1</title>
<path fill="none" stroke="grey" stroke-width="2" d="M395.96,-146.33C376.78,-135.92 350.84,-121.84 329.92,-110.49"/>
<polygon fill="grey" stroke="grey" stroke-width="2" points="331.47,-107.35 321.01,-105.65 328.13,-113.5 331.47,-107.35"/>
</g>
<!-- 7&#45;&gt;1 -->
<g id="edge7" class="edge">
<title>7&#45;&gt;1</title>
<path fill="none" stroke="grey" stroke-width="2" d="M150.67,-215.83C146.85,-196.48 143.98,-165.01 159,-144 181.37,-112.72 225.1,-99.9 256.74,-94.64"/>
<polygon fill="grey" stroke="grey" stroke-width="2" points="257.58,-98.06 266.96,-93.14 256.56,-91.13 257.58,-98.06"/>
</g>
<!-- 7&#45;&gt;4 -->
<g id="edge13" class="edge">
<title>7&#45;&gt;4</title>
<path fill="none" stroke="grey" stroke-width="2" d="M164.89,-215.7C169.49,-207.64 175.06,-197.89 180.15,-188.98"/>
<polygon fill="grey" stroke="grey" stroke-width="2" points="183.3,-190.52 185.23,-180.1 177.23,-187.05 183.3,-190.52"/>
</g>
<!-- 8&#45;&gt;1 -->
<g id="edge8" class="edge">
<title>8&#45;&gt;1</title>
<path fill="none" stroke="grey" stroke-width="2" d="M316.86,-215.87C312.43,-191.67 304.29,-147.21 299.02,-118.39"/>
<polygon fill="grey" stroke="grey" stroke-width="2" points="302.39,-117.4 297.15,-108.19 295.51,-118.66 302.39,-117.4"/>
</g>
<!-- 8&#45;&gt;5 -->
<g id="edge16" class="edge">
<title>8&#45;&gt;5</title>
<path fill="none" stroke="grey" stroke-width="2" d="M306.9,-215.7C300.61,-207.39 292.95,-197.28 286.04,-188.14"/>
<polygon fill="grey" stroke="grey" stroke-width="2" points="288.78,-185.96 279.95,-180.1 283.2,-190.19 288.78,-185.96"/>
</g>
<!-- 9&#45;&gt;1 -->
<g id="edge9" class="edge">
<title>9&#45;&gt;1</title>
<path fill="none" stroke="grey" stroke-width="2" d="M415.35,-215.87C391.01,-190.82 345.56,-144.05 317.72,-115.41"/>
<polygon fill="grey" stroke="grey" stroke-width="2" points="320.18,-112.92 310.71,-108.19 315.16,-117.8 320.18,-112.92"/>
</g>
<!-- 9&#45;&gt;6 -->
<g id="edge19" class="edge">
<title>9&#45;&gt;6</title>
<path fill="none" stroke="grey" stroke-width="2" d="M429.78,-215.7C428.78,-207.98 427.59,-198.71 426.49,-190.11"/>
<polygon fill="grey" stroke="grey" stroke-width="2" points="429.95,-189.58 425.2,-180.1 423,-190.47 429.95,-189.58"/>
</g>
<!-- 10&#45;&gt;7 -->
<g id="edge21" class="edge">
<title>10&#45;&gt;7</title>
<path fill="none" stroke="grey" stroke-width="2" d="M139.4,-287.89C141.83,-279.66 144.54,-270.48 147.01,-262.1"/>
<polygon fill="grey" stroke="grey" stroke-width="2" points="150.39,-262.99 149.87,-252.41 143.68,-261.01 150.39,-262.99"/>
</g>
<!-- 11&#45;&gt;8 -->
<g id="edge23" class="edge">
<title>11&#45;&gt;8</title>
<path fill="none" stroke="grey" stroke-width="2" d="M406.4,-294.12C390.47,-283.21 370.31,-269.42 353.47,-257.9"/>
<polygon fill="grey" stroke="grey" stroke-width="2" points="355.24,-254.87 345.01,-252.11 351.29,-260.65 355.24,-254.87"/>
</g>
<!-- 12&#45;&gt;9 -->
<g id="edge25" class="edge">
<title>12&#45;&gt;9</title>
<path fill="none" stroke="grey" stroke-width="2" d="M482.86,-287.89C474.16,-278.84 464.36,-268.65 455.7,-259.65"/>
<polygon fill="grey" stroke="grey" stroke-width="2" points="458.2,-257.19 448.74,-252.41 453.15,-262.04 458.2,-257.19"/>
</g>
</g>
</svg>
