<?xml version="1.0" encoding="UTF-8" standalone="no"?>
<!DOCTYPE svg PUBLIC "-//W3C//DTD SVG 1.1//EN"
 "http://www.w3.org/Graphics/SVG/1.1/DTD/svg11.dtd">
<!-- Generated by graphviz version 2.43.0 (0)
 -->
<!-- Title: snakemake_dag Pages: 1 -->
<svg width="860pt" height="481pt"
 viewBox="0.00 0.00 860.05 481.00" xmlns="http://www.w3.org/2000/svg" xmlns:xlink="http://www.w3.org/1999/xlink">
<g id="graph0" class="graph" transform="scale(1 1) rotate(0) translate(4 477)">
<title>snakemake_dag</title>
<polygon fill="white" stroke="transparent" points="-4,4 -4,-477 856.05,-477 856.05,4 -4,4"/>
<!-- 0 -->
<g id="node1" class="node">
<title>0</title>
<path fill="none" stroke="#56d0d8" stroke-width="2" d="M432.05,-36C432.05,-36 402.05,-36 402.05,-36 396.05,-36 390.05,-30 390.05,-24 390.05,-24 390.05,-12 390.05,-12 390.05,-6 396.05,0 402.05,0 402.05,0 432.05,0 432.05,0 438.05,0 444.05,-6 444.05,-12 444.05,-12 444.05,-24 444.05,-24 444.05,-30 438.05,-36 432.05,-36"/>
<text text-anchor="middle" x="417.05" y="-15.5" font-family="sans" font-size="10.00">abc</text>
</g>
<!-- 1 -->
<g id="node2" class="node">
<title>1</title>
<path fill="none" stroke="#56a9d8" stroke-width="2" stroke-dasharray="5,2" d="M314.05,-108C314.05,-108 252.05,-108 252.05,-108 246.05,-108 240.05,-102 240.05,-96 240.05,-96 240.05,-84 240.05,-84 240.05,-78 246.05,-72 252.05,-72 252.05,-72 314.05,-72 314.05,-72 320.05,-72 326.05,-78 326.05,-84 326.05,-84 326.05,-96 326.05,-96 326.05,-102 320.05,-108 314.05,-108"/>
<text text-anchor="middle" x="283.05" y="-87.5" font-family="sans" font-size="10.00">reftable_batch</text>
</g>
<!-- 1&#45;&gt;0 -->
<g id="edge1" class="edge">
<title>1&#45;&gt;0</title>
<path fill="none" stroke="grey" stroke-width="2" d="M315.83,-71.88C335.58,-61.56 360.76,-48.4 381.06,-37.8"/>
<polygon fill="grey" stroke="grey" stroke-width="2" points="382.77,-40.86 390.01,-33.12 379.53,-34.65 382.77,-40.86"/>
</g>
<!-- 2 -->
<g id="node3" class="node">
<title>2</title>
<path fill="none" stroke="#56a9d8" stroke-width="2" stroke-dasharray="5,2" d="M676.05,-108C676.05,-108 614.05,-108 614.05,-108 608.05,-108 602.05,-102 602.05,-96 602.05,-96 602.05,-84 602.05,-84 602.05,-78 608.05,-72 614.05,-72 614.05,-72 676.05,-72 676.05,-72 682.05,-72 688.05,-78 688.05,-84 688.05,-84 688.05,-96 688.05,-96 688.05,-102 682.05,-108 676.05,-108"/>
<text text-anchor="middle" x="645.05" y="-87.5" font-family="sans" font-size="10.00">reftable_batch</text>
</g>
<!-- 2&#45;&gt;0 -->
<g id="edge2" class="edge">
<title>2&#45;&gt;0</title>
<path fill="none" stroke="grey" stroke-width="2" d="M601.89,-75.75C559.17,-62.63 494.44,-42.76 454.01,-30.35"/>
<polygon fill="grey" stroke="grey" stroke-width="2" points="454.87,-26.95 444.29,-27.36 452.82,-33.64 454.87,-26.95"/>
</g>
<!-- 3 -->
<g id="node4" class="node">
<title>3</title>
<path fill="none" stroke="#56d86b" stroke-width="2" stroke-dasharray="5,2" d="M231.55,-401C231.55,-401 154.55,-401 154.55,-401 148.55,-401 142.55,-395 142.55,-389 142.55,-389 142.55,-372 142.55,-372 142.55,-366 148.55,-360 154.55,-360 154.55,-360 231.55,-360 231.55,-360 237.55,-360 243.55,-366 243.55,-372 243.55,-372 243.55,-389 243.55,-389 243.55,-395 237.55,-401 231.55,-401"/>
<text text-anchor="middle" x="193.05" y="-389" font-family="sans" font-size="10.00">getparams_batch</text>
<text text-anchor="middle" x="193.05" y="-378" font-family="sans" font-size="10.00">b: 1</text>
<text text-anchor="middle" x="193.05" y="-367" font-family="sans" font-size="10.00">p: test</text>
</g>
<!-- 3&#45;&gt;0 -->
<g id="edge3" class="edge">
<title>3&#45;&gt;0</title>
<path fill="none" stroke="grey" stroke-width="2" d="M166.85,-359.98C139.21,-337.51 97.41,-297.78 81.05,-252 64.79,-206.52 64.69,-183.09 93.05,-144 161.23,-50 310.23,-26.69 379.83,-20.91"/>
<polygon fill="grey" stroke="grey" stroke-width="2" points="380.19,-24.39 389.9,-20.15 379.67,-17.41 380.19,-24.39"/>
</g>
<!-- 6 -->
<g id="node7" class="node">
<title>6</title>
<path fill="none" stroke="#d8cb56" stroke-width="2" stroke-dasharray="5,2" d="M144.05,-180C144.05,-180 114.05,-180 114.05,-180 108.05,-180 102.05,-174 102.05,-168 102.05,-168 102.05,-156 102.05,-156 102.05,-150 108.05,-144 114.05,-144 114.05,-144 144.05,-144 144.05,-144 150.05,-144 156.05,-150 156.05,-156 156.05,-156 156.05,-168 156.05,-168 156.05,-174 150.05,-180 144.05,-180"/>
<text text-anchor="middle" x="129.05" y="-159.5" font-family="sans" font-size="10.00">mutsim</text>
</g>
<!-- 3&#45;&gt;6 -->
<g id="edge17" class="edge">
<title>3&#45;&gt;6</title>
<path fill="none" stroke="grey" stroke-width="2" d="M189.99,-359.96C184.8,-328.88 173.04,-266.51 155.05,-216 151.85,-207.02 147.54,-197.57 143.36,-189.18"/>
<polygon fill="grey" stroke="grey" stroke-width="2" points="146.44,-187.52 138.75,-180.23 140.22,-190.72 146.44,-187.52"/>
</g>
<!-- 7 -->
<g id="node8" class="node">
<title>7</title>
<path fill="none" stroke="#d8cb56" stroke-width="2" stroke-dasharray="5,2" d="M271.05,-180C271.05,-180 241.05,-180 241.05,-180 235.05,-180 229.05,-174 229.05,-168 229.05,-168 229.05,-156 229.05,-156 229.05,-150 235.05,-144 241.05,-144 241.05,-144 271.05,-144 271.05,-144 277.05,-144 283.05,-150 283.05,-156 283.05,-156 283.05,-168 283.05,-168 283.05,-174 277.05,-180 271.05,-180"/>
<text text-anchor="middle" x="256.05" y="-159.5" font-family="sans" font-size="10.00">mutsim</text>
</g>
<!-- 3&#45;&gt;7 -->
<g id="edge20" class="edge">
<title>3&#45;&gt;7</title>
<path fill="none" stroke="grey" stroke-width="2" d="M198.75,-359.91C210.05,-321.07 235.31,-234.28 248.18,-190.04"/>
<polygon fill="grey" stroke="grey" stroke-width="2" points="251.59,-190.85 251.02,-180.27 244.87,-188.89 251.59,-190.85"/>
</g>
<!-- 8 -->
<g id="node9" class="node">
<title>8</title>
<path fill="none" stroke="#68d856" stroke-width="2" stroke-dasharray="5,2" d="M134.05,-252C134.05,-252 102.05,-252 102.05,-252 96.05,-252 90.05,-246 90.05,-240 90.05,-240 90.05,-228 90.05,-228 90.05,-222 96.05,-216 102.05,-216 102.05,-216 134.05,-216 134.05,-216 140.05,-216 146.05,-222 146.05,-228 146.05,-228 146.05,-240 146.05,-240 146.05,-246 140.05,-252 134.05,-252"/>
<text text-anchor="middle" x="118.05" y="-231.5" font-family="sans" font-size="10.00">forwsim</text>
</g>
<!-- 3&#45;&gt;8 -->
<g id="edge23" class="edge">
<title>3&#45;&gt;8</title>
<path fill="none" stroke="grey" stroke-width="2" d="M180.82,-359.98C174.39,-349.46 166.52,-336.17 160.05,-324 149.08,-303.38 137.85,-279.41 129.77,-261.54"/>
<polygon fill="grey" stroke="grey" stroke-width="2" points="132.91,-259.99 125.62,-252.3 126.52,-262.86 132.91,-259.99"/>
</g>
<!-- 9 -->
<g id="node10" class="node">
<title>9</title>
<path fill="none" stroke="#68d856" stroke-width="2" stroke-dasharray="5,2" d="M311.05,-252C311.05,-252 279.05,-252 279.05,-252 273.05,-252 267.05,-246 267.05,-240 267.05,-240 267.05,-228 267.05,-228 267.05,-222 273.05,-216 279.05,-216 279.05,-216 311.05,-216 311.05,-216 317.05,-216 323.05,-222 323.05,-228 323.05,-228 323.05,-240 323.05,-240 323.05,-246 317.05,-252 311.05,-252"/>
<text text-anchor="middle" x="295.05" y="-231.5" font-family="sans" font-size="10.00">forwsim</text>
</g>
<!-- 3&#45;&gt;9 -->
<g id="edge25" class="edge">
<title>3&#45;&gt;9</title>
<path fill="none" stroke="grey" stroke-width="2" d="M207.02,-359.71C225.21,-333.93 257.05,-288.82 277.04,-260.51"/>
<polygon fill="grey" stroke="grey" stroke-width="2" points="279.93,-262.48 282.84,-252.3 274.21,-258.45 279.93,-262.48"/>
</g>
<!-- 14 -->
<g id="node15" class="node">
<title>14</title>
<path fill="none" stroke="#b6d856" stroke-width="2" stroke-dasharray="5,2" d="M57.55,-324C57.55,-324 26.55,-324 26.55,-324 20.55,-324 14.55,-318 14.55,-312 14.55,-312 14.55,-300 14.55,-300 14.55,-294 20.55,-288 26.55,-288 26.55,-288 57.55,-288 57.55,-288 63.55,-288 69.55,-294 69.55,-300 69.55,-300 69.55,-312 69.55,-312 69.55,-318 63.55,-324 57.55,-324"/>
<text text-anchor="middle" x="42.05" y="-309" font-family="sans" font-size="10.00">coalsim</text>
<text text-anchor="middle" x="42.05" y="-298" font-family="sans" font-size="10.00">s: 1</text>
</g>
<!-- 3&#45;&gt;14 -->
<g id="edge37" class="edge">
<title>3&#45;&gt;14</title>
<path fill="none" stroke="grey" stroke-width="2" d="M152.18,-359.88C129.26,-348.87 100.89,-335.25 78.69,-324.59"/>
<polygon fill="grey" stroke="grey" stroke-width="2" points="80.11,-321.39 69.58,-320.22 77.08,-327.7 80.11,-321.39"/>
</g>
<!-- 15 -->
<g id="node16" class="node">
<title>15</title>
<path fill="none" stroke="#b6d856" stroke-width="2" stroke-dasharray="5,2" d="M321.55,-324C321.55,-324 290.55,-324 290.55,-324 284.55,-324 278.55,-318 278.55,-312 278.55,-312 278.55,-300 278.55,-300 278.55,-294 284.55,-288 290.55,-288 290.55,-288 321.55,-288 321.55,-288 327.55,-288 333.55,-294 333.55,-300 333.55,-300 333.55,-312 333.55,-312 333.55,-318 327.55,-324 321.55,-324"/>
<text text-anchor="middle" x="306.05" y="-309" font-family="sans" font-size="10.00">coalsim</text>
<text text-anchor="middle" x="306.05" y="-298" font-family="sans" font-size="10.00">s: 2</text>
</g>
<!-- 3&#45;&gt;15 -->
<g id="edge39" class="edge">
<title>3&#45;&gt;15</title>
<path fill="none" stroke="grey" stroke-width="2" d="M223.63,-359.88C238.16,-350.56 255.62,-339.36 270.71,-329.67"/>
<polygon fill="grey" stroke="grey" stroke-width="2" points="272.76,-332.51 279.29,-324.17 268.98,-326.62 272.76,-332.51"/>
</g>
<!-- 4 -->
<g id="node5" class="node">
<title>4</title>
<path fill="none" stroke="#56d86b" stroke-width="2" stroke-dasharray="5,2" d="M645.55,-401C645.55,-401 568.55,-401 568.55,-401 562.55,-401 556.55,-395 556.55,-389 556.55,-389 556.55,-372 556.55,-372 556.55,-366 562.55,-360 568.55,-360 568.55,-360 645.55,-360 645.55,-360 651.55,-360 657.55,-366 657.55,-372 657.55,-372 657.55,-389 657.55,-389 657.55,-395 651.55,-401 645.55,-401"/>
<text text-anchor="middle" x="607.05" y="-389" font-family="sans" font-size="10.00">getparams_batch</text>
<text text-anchor="middle" x="607.05" y="-378" font-family="sans" font-size="10.00">b: 2</text>
<text text-anchor="middle" x="607.05" y="-367" font-family="sans" font-size="10.00">p: test</text>
</g>
<!-- 4&#45;&gt;0 -->
<g id="edge4" class="edge">
<title>4&#45;&gt;0</title>
<path fill="none" stroke="grey" stroke-width="2" d="M595.11,-359.85C580.15,-334.99 553.92,-290.76 533.05,-252 493.3,-178.18 450.23,-88.97 429.54,-45.45"/>
<polygon fill="grey" stroke="grey" stroke-width="2" points="432.57,-43.68 425.12,-36.15 426.25,-46.68 432.57,-43.68"/>
</g>
<!-- 10 -->
<g id="node11" class="node">
<title>10</title>
<path fill="none" stroke="#d8cb56" stroke-width="2" stroke-dasharray="5,2" d="M735.05,-180C735.05,-180 705.05,-180 705.05,-180 699.05,-180 693.05,-174 693.05,-168 693.05,-168 693.05,-156 693.05,-156 693.05,-150 699.05,-144 705.05,-144 705.05,-144 735.05,-144 735.05,-144 741.05,-144 747.05,-150 747.05,-156 747.05,-156 747.05,-168 747.05,-168 747.05,-174 741.05,-180 735.05,-180"/>
<text text-anchor="middle" x="720.05" y="-159.5" font-family="sans" font-size="10.00">mutsim</text>
</g>
<!-- 4&#45;&gt;10 -->
<g id="edge27" class="edge">
<title>4&#45;&gt;10</title>
<path fill="none" stroke="grey" stroke-width="2" d="M614.88,-359.82C627.62,-328.54 654.31,-265.92 683.05,-216 688.42,-206.66 694.97,-196.88 701.05,-188.29"/>
<polygon fill="grey" stroke="grey" stroke-width="2" points="703.9,-190.32 706.92,-180.16 698.23,-186.22 703.9,-190.32"/>
</g>
<!-- 11 -->
<g id="node12" class="node">
<title>11</title>
<path fill="none" stroke="#d8cb56" stroke-width="2" stroke-dasharray="5,2" d="M585.05,-180C585.05,-180 555.05,-180 555.05,-180 549.05,-180 543.05,-174 543.05,-168 543.05,-168 543.05,-156 543.05,-156 543.05,-150 549.05,-144 555.05,-144 555.05,-144 585.05,-144 585.05,-144 591.05,-144 597.05,-150 597.05,-156 597.05,-156 597.05,-168 597.05,-168 597.05,-174 591.05,-180 585.05,-180"/>
<text text-anchor="middle" x="570.05" y="-159.5" font-family="sans" font-size="10.00">mutsim</text>
</g>
<!-- 4&#45;&gt;11 -->
<g id="edge30" class="edge">
<title>4&#45;&gt;11</title>
<path fill="none" stroke="grey" stroke-width="2" d="M610.77,-359.8C615.86,-328.49 622.72,-265.82 607.05,-216 603.95,-206.15 598.3,-196.53 592.33,-188.25"/>
<polygon fill="grey" stroke="grey" stroke-width="2" points="594.96,-185.94 586.08,-180.15 589.42,-190.21 594.96,-185.94"/>
</g>
<!-- 12 -->
<g id="node13" class="node">
<title>12</title>
<path fill="none" stroke="#68d856" stroke-width="2" stroke-dasharray="5,2" d="M736.05,-252C736.05,-252 704.05,-252 704.05,-252 698.05,-252 692.05,-246 692.05,-240 692.05,-240 692.05,-228 692.05,-228 692.05,-222 698.05,-216 704.05,-216 704.05,-216 736.05,-216 736.05,-216 742.05,-216 748.05,-222 748.05,-228 748.05,-228 748.05,-240 748.05,-240 748.05,-246 742.05,-252 736.05,-252"/>
<text text-anchor="middle" x="720.05" y="-231.5" font-family="sans" font-size="10.00">forwsim</text>
</g>
<!-- 4&#45;&gt;12 -->
<g id="edge33" class="edge">
<title>4&#45;&gt;12</title>
<path fill="none" stroke="grey" stroke-width="2" d="M638.43,-359.82C651.88,-350.24 667.01,-337.81 678.05,-324 693.05,-305.22 704.25,-280.19 711.3,-261.47"/>
<polygon fill="grey" stroke="grey" stroke-width="2" points="714.59,-262.64 714.69,-252.05 708.01,-260.27 714.59,-262.64"/>
</g>
<!-- 13 -->
<g id="node14" class="node">
<title>13</title>
<path fill="none" stroke="#68d856" stroke-width="2" stroke-dasharray="5,2" d="M586.05,-252C586.05,-252 554.05,-252 554.05,-252 548.05,-252 542.05,-246 542.05,-240 542.05,-240 542.05,-228 542.05,-228 542.05,-222 548.05,-216 554.05,-216 554.05,-216 586.05,-216 586.05,-216 592.05,-216 598.05,-222 598.05,-228 598.05,-228 598.05,-240 598.05,-240 598.05,-246 592.05,-252 586.05,-252"/>
<text text-anchor="middle" x="570.05" y="-231.5" font-family="sans" font-size="10.00">forwsim</text>
</g>
<!-- 4&#45;&gt;13 -->
<g id="edge35" class="edge">
<title>4&#45;&gt;13</title>
<path fill="none" stroke="grey" stroke-width="2" d="M601.98,-359.71C595.49,-334.38 584.23,-290.37 576.96,-261.98"/>
<polygon fill="grey" stroke="grey" stroke-width="2" points="580.35,-261.11 574.48,-252.3 573.57,-262.85 580.35,-261.11"/>
</g>
<!-- 16 -->
<g id="node17" class="node">
<title>16</title>
<path fill="none" stroke="#b6d856" stroke-width="2" stroke-dasharray="5,2" d="M773.55,-324C773.55,-324 742.55,-324 742.55,-324 736.55,-324 730.55,-318 730.55,-312 730.55,-312 730.55,-300 730.55,-300 730.55,-294 736.55,-288 742.55,-288 742.55,-288 773.55,-288 773.55,-288 779.55,-288 785.55,-294 785.55,-300 785.55,-300 785.55,-312 785.55,-312 785.55,-318 779.55,-324 773.55,-324"/>
<text text-anchor="middle" x="758.05" y="-309" font-family="sans" font-size="10.00">coalsim</text>
<text text-anchor="middle" x="758.05" y="-298" font-family="sans" font-size="10.00">s: 1</text>
</g>
<!-- 4&#45;&gt;16 -->
<g id="edge41" class="edge">
<title>4&#45;&gt;16</title>
<path fill="none" stroke="grey" stroke-width="2" d="M647.91,-359.88C670.84,-348.87 699.21,-335.25 721.41,-324.59"/>
<polygon fill="grey" stroke="grey" stroke-width="2" points="723.01,-327.7 730.51,-320.22 719.98,-321.39 723.01,-327.7"/>
</g>
<!-- 17 -->
<g id="node18" class="node">
<title>17</title>
<path fill="none" stroke="#b6d856" stroke-width="2" stroke-dasharray="5,2" d="M509.55,-324C509.55,-324 478.55,-324 478.55,-324 472.55,-324 466.55,-318 466.55,-312 466.55,-312 466.55,-300 466.55,-300 466.55,-294 472.55,-288 478.55,-288 478.55,-288 509.55,-288 509.55,-288 515.55,-288 521.55,-294 521.55,-300 521.55,-300 521.55,-312 521.55,-312 521.55,-318 515.55,-324 509.55,-324"/>
<text text-anchor="middle" x="494.05" y="-309" font-family="sans" font-size="10.00">coalsim</text>
<text text-anchor="middle" x="494.05" y="-298" font-family="sans" font-size="10.00">s: 2</text>
</g>
<!-- 4&#45;&gt;17 -->
<g id="edge43" class="edge">
<title>4&#45;&gt;17</title>
<path fill="none" stroke="grey" stroke-width="2" d="M576.47,-359.88C561.93,-350.56 544.48,-339.36 529.38,-329.67"/>
<polygon fill="grey" stroke="grey" stroke-width="2" points="531.11,-326.62 520.8,-324.17 527.33,-332.51 531.11,-326.62"/>
</g>
<!-- 5 -->
<g id="node6" class="node">
<title>5</title>
<path fill="none" stroke="#d87d56" stroke-width="2" stroke-dasharray="5,2" d="M439.55,-473C439.55,-473 398.55,-473 398.55,-473 392.55,-473 386.55,-467 386.55,-461 386.55,-461 386.55,-449 386.55,-449 386.55,-443 392.55,-437 398.55,-437 398.55,-437 439.55,-437 439.55,-437 445.55,-437 451.55,-443 451.55,-449 451.55,-449 451.55,-461 451.55,-461 451.55,-467 445.55,-473 439.55,-473"/>
<text text-anchor="middle" x="419.05" y="-452.5" font-family="sans" font-size="10.00">setproject</text>
</g>
<!-- 5&#45;&gt;1 -->
<g id="edge5" class="edge">
<title>5&#45;&gt;1</title>
<path fill="none" stroke="grey" stroke-width="2" d="M415.38,-436.89C409.86,-409.57 400.05,-354.35 400.05,-307 400.05,-307 400.05,-307 400.05,-233 400.05,-181.61 353.85,-138.74 319.51,-113.97"/>
<polygon fill="grey" stroke="grey" stroke-width="2" points="321.27,-110.93 311.07,-108.06 317.26,-116.66 321.27,-110.93"/>
</g>
<!-- 5&#45;&gt;2 -->
<g id="edge10" class="edge">
<title>5&#45;&gt;2</title>
<path fill="none" stroke="grey" stroke-width="2" d="M451.79,-451.25C524.94,-444.72 699.36,-426.85 752.05,-401 806.81,-374.13 852.05,-368 852.05,-307 852.05,-307 852.05,-307 852.05,-233 852.05,-158.38 759.45,-120.06 698.12,-102.86"/>
<polygon fill="grey" stroke="grey" stroke-width="2" points="698.76,-99.4 688.19,-100.18 696.93,-106.16 698.76,-99.4"/>
</g>
<!-- 5&#45;&gt;3 -->
<g id="edge15" class="edge">
<title>5&#45;&gt;3</title>
<path fill="none" stroke="grey" stroke-width="2" d="M386.18,-443.46C351.54,-432.35 296.2,-414.59 253.62,-400.93"/>
<polygon fill="grey" stroke="grey" stroke-width="2" points="254.51,-397.54 243.92,-397.82 252.37,-404.21 254.51,-397.54"/>
</g>
<!-- 5&#45;&gt;4 -->
<g id="edge16" class="edge">
<title>5&#45;&gt;4</title>
<path fill="none" stroke="grey" stroke-width="2" d="M451.79,-441.37C477.92,-431.3 515.22,-416.91 546.71,-404.77"/>
<polygon fill="grey" stroke="grey" stroke-width="2" points="548.21,-407.94 556.28,-401.08 545.69,-401.41 548.21,-407.94"/>
</g>
<!-- 5&#45;&gt;6 -->
<g id="edge18" class="edge">
<title>5&#45;&gt;6</title>
<path fill="none" stroke="grey" stroke-width="2" d="M386.47,-451.54C312.33,-445.52 133.3,-428.51 80.05,-401 37.6,-379.07 23.04,-368.26 5.05,-324 -18.31,-266.55 48.87,-212.09 93.27,-183.6"/>
<polygon fill="grey" stroke="grey" stroke-width="2" points="95.19,-186.52 101.81,-178.25 91.48,-180.59 95.19,-186.52"/>
</g>
<!-- 5&#45;&gt;7 -->
<g id="edge21" class="edge">
<title>5&#45;&gt;7</title>
<path fill="none" stroke="grey" stroke-width="2" d="M406.79,-437C399.96,-426.92 391.71,-413.67 386.05,-401 351.09,-322.81 382.02,-285.57 332.05,-216 321.71,-201.61 306.2,-189.79 291.88,-181"/>
<polygon fill="grey" stroke="grey" stroke-width="2" points="293.58,-177.93 283.18,-175.91 290.05,-183.98 293.58,-177.93"/>
</g>
<!-- 5&#45;&gt;10 -->
<g id="edge28" class="edge">
<title>5&#45;&gt;10</title>
<path fill="none" stroke="grey" stroke-width="2" d="M451.61,-453.39C506.51,-451.21 619.83,-441.69 705.05,-401 752.55,-378.32 773.03,-371.82 795.05,-324 817.28,-275.72 775.56,-219.45 745.94,-187.85"/>
<polygon fill="grey" stroke="grey" stroke-width="2" points="748.18,-185.13 738.71,-180.37 743.14,-189.99 748.18,-185.13"/>
</g>
<!-- 5&#45;&gt;11 -->
<g id="edge31" class="edge">
<title>5&#45;&gt;11</title>
<path fill="none" stroke="grey" stroke-width="2" d="M420.3,-436.53C423.15,-405.16 432.04,-337.87 458.05,-288 479.05,-247.73 516,-210.15 541.69,-186.93"/>
<polygon fill="grey" stroke="grey" stroke-width="2" points="544.12,-189.45 549.27,-180.19 539.47,-184.21 544.12,-189.45"/>
</g>
<!-- 5&#45;&gt;14 -->
<g id="edge38" class="edge">
<title>5&#45;&gt;14</title>
<path fill="none" stroke="grey" stroke-width="2" d="M386.5,-454.26C331.12,-453.39 216.48,-445.76 133.05,-401 102.3,-384.5 75.69,-353.96 59.32,-332.17"/>
<polygon fill="grey" stroke="grey" stroke-width="2" points="62.08,-330.01 53.36,-324 56.43,-334.14 62.08,-330.01"/>
</g>
<!-- 5&#45;&gt;15 -->
<g id="edge40" class="edge">
<title>5&#45;&gt;15</title>
<path fill="none" stroke="grey" stroke-width="2" d="M389.64,-436.99C375.63,-427.75 359.48,-415.29 348.05,-401 331.97,-380.92 320.7,-353.71 313.91,-333.73"/>
<polygon fill="grey" stroke="grey" stroke-width="2" points="317.17,-332.45 310.76,-324.02 310.51,-334.61 317.17,-332.45"/>
</g>
<!-- 5&#45;&gt;16 -->
<g id="edge42" class="edge">
<title>5&#45;&gt;16</title>
<path fill="none" stroke="grey" stroke-width="2" d="M451.66,-453.01C501.18,-450.24 596.96,-439.84 667.05,-401 697.39,-384.18 723.92,-353.98 740.38,-332.34"/>
<polygon fill="grey" stroke="grey" stroke-width="2" points="743.25,-334.35 746.39,-324.23 737.63,-330.18 743.25,-334.35"/>
</g>
<!-- 5&#45;&gt;17 -->
<g id="edge44" class="edge">
<title>5&#45;&gt;17</title>
<path fill="none" stroke="grey" stroke-width="2" d="M430.66,-436.69C437.29,-426.5 445.54,-413.25 452.05,-401 463.83,-378.82 475.34,-352.67 483.31,-333.59"/>
<polygon fill="grey" stroke="grey" stroke-width="2" points="486.56,-334.9 487.15,-324.32 480.09,-332.22 486.56,-334.9"/>
</g>
<!-- 6&#45;&gt;1 -->
<g id="edge6" class="edge">
<title>6&#45;&gt;1</title>
<path fill="none" stroke="grey" stroke-width="2" d="M156.22,-148.65C178.3,-138.61 209.94,-124.23 236.09,-112.34"/>
<polygon fill="grey" stroke="grey" stroke-width="2" points="237.8,-115.41 245.46,-108.09 234.9,-109.04 237.8,-115.41"/>
</g>
<!-- 7&#45;&gt;1 -->
<g id="edge7" class="edge">
<title>7&#45;&gt;1</title>
<path fill="none" stroke="grey" stroke-width="2" d="M262.72,-143.7C265.76,-135.81 269.43,-126.3 272.81,-117.55"/>
<polygon fill="grey" stroke="grey" stroke-width="2" points="276.12,-118.69 276.45,-108.1 269.59,-116.17 276.12,-118.69"/>
</g>
<!-- 8&#45;&gt;1 -->
<g id="edge8" class="edge">
<title>8&#45;&gt;1</title>
<path fill="none" stroke="grey" stroke-width="2" d="M137.51,-215.83C157.97,-197.83 191.14,-168.77 220.05,-144 231.29,-134.37 243.75,-123.85 254.6,-114.74"/>
<polygon fill="grey" stroke="grey" stroke-width="2" points="257.12,-117.2 262.54,-108.09 252.63,-111.83 257.12,-117.2"/>
</g>
<!-- 8&#45;&gt;6 -->
<g id="edge19" class="edge">
<title>8&#45;&gt;6</title>
<path fill="none" stroke="grey" stroke-width="2" d="M120.77,-215.7C121.98,-207.98 123.44,-198.71 124.79,-190.11"/>
<polygon fill="grey" stroke="grey" stroke-width="2" points="128.26,-190.53 126.36,-180.1 121.35,-189.44 128.26,-190.53"/>
</g>
<!-- 9&#45;&gt;1 -->
<g id="edge9" class="edge">
<title>9&#45;&gt;1</title>
<path fill="none" stroke="grey" stroke-width="2" d="M295.15,-215.89C295.1,-197.94 294.57,-168.92 292.05,-144 291.19,-135.51 289.79,-126.33 288.36,-118.03"/>
<polygon fill="grey" stroke="grey" stroke-width="2" points="291.79,-117.32 286.55,-108.11 284.9,-118.57 291.79,-117.32"/>
</g>
<!-- 9&#45;&gt;7 -->
<g id="edge22" class="edge">
<title>9&#45;&gt;7</title>
<path fill="none" stroke="grey" stroke-width="2" d="M285.41,-215.7C280.92,-207.64 275.49,-197.89 270.52,-188.98"/>
<polygon fill="grey" stroke="grey" stroke-width="2" points="273.5,-187.14 265.58,-180.1 267.39,-190.54 273.5,-187.14"/>
</g>
<!-- 10&#45;&gt;2 -->
<g id="edge11" class="edge">
<title>10&#45;&gt;2</title>
<path fill="none" stroke="grey" stroke-width="2" d="M701.51,-143.7C692.24,-135.05 680.88,-124.45 670.79,-115.03"/>
<polygon fill="grey" stroke="grey" stroke-width="2" points="673.07,-112.37 663.37,-108.1 668.3,-117.49 673.07,-112.37"/>
</g>
<!-- 11&#45;&gt;2 -->
<g id="edge12" class="edge">
<title>11&#45;&gt;2</title>
<path fill="none" stroke="grey" stroke-width="2" d="M588.59,-143.7C597.85,-135.05 609.21,-124.45 619.3,-115.03"/>
<polygon fill="grey" stroke="grey" stroke-width="2" points="621.8,-117.49 626.72,-108.1 617.02,-112.37 621.8,-117.49"/>
</g>
<!-- 12&#45;&gt;2 -->
<g id="edge13" class="edge">
<title>12&#45;&gt;2</title>
<path fill="none" stroke="grey" stroke-width="2" d="M707.21,-215.85C699.93,-205.71 690.93,-192.46 684.05,-180 672.83,-159.69 662.41,-135.52 655.16,-117.49"/>
<polygon fill="grey" stroke="grey" stroke-width="2" points="658.41,-116.19 651.48,-108.17 651.9,-118.76 658.41,-116.19"/>
</g>
<!-- 12&#45;&gt;10 -->
<g id="edge29" class="edge">
<title>12&#45;&gt;10</title>
<path fill="none" stroke="grey" stroke-width="2" d="M720.05,-215.7C720.05,-207.98 720.05,-198.71 720.05,-190.11"/>
<polygon fill="grey" stroke="grey" stroke-width="2" points="723.55,-190.1 720.05,-180.1 716.55,-190.1 723.55,-190.1"/>
</g>
<!-- 13&#45;&gt;2 -->
<g id="edge14" class="edge">
<title>13&#45;&gt;2</title>
<path fill="none" stroke="grey" stroke-width="2" d="M582.88,-215.85C590.16,-205.71 599.16,-192.46 606.05,-180 617.27,-159.69 627.69,-135.52 634.93,-117.49"/>
<polygon fill="grey" stroke="grey" stroke-width="2" points="638.19,-118.76 638.61,-108.17 631.68,-116.19 638.19,-118.76"/>
</g>
<!-- 13&#45;&gt;11 -->
<g id="edge32" class="edge">
<title>13&#45;&gt;11</title>
<path fill="none" stroke="grey" stroke-width="2" d="M570.05,-215.7C570.05,-207.98 570.05,-198.71 570.05,-190.11"/>
<polygon fill="grey" stroke="grey" stroke-width="2" points="573.55,-190.1 570.05,-180.1 566.55,-190.1 573.55,-190.1"/>
</g>
<!-- 14&#45;&gt;8 -->
<g id="edge24" class="edge">
<title>14&#45;&gt;8</title>
<path fill="none" stroke="grey" stroke-width="2" d="M60.83,-287.7C70.22,-279.05 81.73,-268.45 91.96,-259.03"/>
<polygon fill="grey" stroke="grey" stroke-width="2" points="94.49,-261.45 99.48,-252.1 89.75,-256.3 94.49,-261.45"/>
</g>
<!-- 15&#45;&gt;9 -->
<g id="edge26" class="edge">
<title>15&#45;&gt;9</title>
<path fill="none" stroke="grey" stroke-width="2" d="M303.33,-287.7C302.12,-279.98 300.66,-270.71 299.31,-262.11"/>
<polygon fill="grey" stroke="grey" stroke-width="2" points="302.74,-261.44 297.73,-252.1 295.83,-262.53 302.74,-261.44"/>
</g>
<!-- 16&#45;&gt;12 -->
<g id="edge34" class="edge">
<title>16&#45;&gt;12</title>
<path fill="none" stroke="grey" stroke-width="2" d="M748.65,-287.7C744.28,-279.64 738.99,-269.89 734.15,-260.98"/>
<polygon fill="grey" stroke="grey" stroke-width="2" points="737.18,-259.22 729.33,-252.1 731.03,-262.56 737.18,-259.22"/>
</g>
<!-- 17&#45;&gt;13 -->
<g id="edge36" class="edge">
<title>17&#45;&gt;13</title>
<path fill="none" stroke="grey" stroke-width="2" d="M512.83,-287.7C522.22,-279.05 533.73,-268.45 543.96,-259.03"/>
<polygon fill="grey" stroke="grey" stroke-width="2" points="546.49,-261.45 551.48,-252.1 541.75,-256.3 546.49,-261.45"/>
</g>
</g>
</svg>
