<?xml version="1.0" encoding="UTF-8" standalone="no"?>
<!DOCTYPE svg PUBLIC "-//W3C//DTD SVG 1.1//EN"
 "http://www.w3.org/Graphics/SVG/1.1/DTD/svg11.dtd">
<!-- Generated by graphviz version 2.43.0 (0)
 -->
<!-- Title: snakemake_dag Pages: 1 -->
<svg width="641pt" height="409pt"
 viewBox="0.00 0.00 641.02 409.00" xmlns="http://www.w3.org/2000/svg" xmlns:xlink="http://www.w3.org/1999/xlink">
<g id="graph0" class="graph" transform="scale(1 1) rotate(0) translate(4 405)">
<title>snakemake_dag</title>
<polygon fill="white" stroke="transparent" points="-4,4 -4,-405 637.02,-405 637.02,4 -4,4"/>
<!-- 0 -->
<g id="node1" class="node">
<title>0</title>
<path fill="none" stroke="#9fd856" stroke-width="2" stroke-dasharray="5,2" d="M308.5,-36C308.5,-36 253.5,-36 253.5,-36 247.5,-36 241.5,-30 241.5,-24 241.5,-24 241.5,-12 241.5,-12 241.5,-6 247.5,0 253.5,0 253.5,0 308.5,0 308.5,0 314.5,0 320.5,-6 320.5,-12 320.5,-12 320.5,-24 320.5,-24 320.5,-30 314.5,-36 308.5,-36"/>
<text text-anchor="middle" x="281" y="-15.5" font-family="sans" font-size="10.00">afforestation</text>
</g>
<!-- 1 -->
<g id="node2" class="node">
<title>1</title>
<path fill="none" stroke="#d8b456" stroke-width="2" stroke-dasharray="5,2" d="M246,-108C246,-108 184,-108 184,-108 178,-108 172,-102 172,-96 172,-96 172,-84 172,-84 172,-78 178,-72 184,-72 184,-72 246,-72 246,-72 252,-72 258,-78 258,-84 258,-84 258,-96 258,-96 258,-102 252,-108 246,-108"/>
<text text-anchor="middle" x="215" y="-87.5" font-family="sans" font-size="10.00">reftable_batch</text>
</g>
<!-- 1&#45;&gt;0 -->
<g id="edge1" class="edge">
<title>1&#45;&gt;0</title>
<path fill="none" stroke="grey" stroke-width="2" d="M231.31,-71.7C239.31,-63.22 249.07,-52.86 257.82,-43.58"/>
<polygon fill="grey" stroke="grey" stroke-width="2" points="260.56,-45.78 264.87,-36.1 255.47,-40.98 260.56,-45.78"/>
</g>
<!-- 2 -->
<g id="node3" class="node">
<title>2</title>
<path fill="none" stroke="#d8b456" stroke-width="2" stroke-dasharray="5,2" d="M518,-108C518,-108 456,-108 456,-108 450,-108 444,-102 444,-96 444,-96 444,-84 444,-84 444,-78 450,-72 456,-72 456,-72 518,-72 518,-72 524,-72 530,-78 530,-84 530,-84 530,-96 530,-96 530,-102 524,-108 518,-108"/>
<text text-anchor="middle" x="487" y="-87.5" font-family="sans" font-size="10.00">reftable_batch</text>
</g>
<!-- 2&#45;&gt;0 -->
<g id="edge2" class="edge">
<title>2&#45;&gt;0</title>
<path fill="none" stroke="grey" stroke-width="2" d="M443.82,-74.33C410.74,-63.09 365.08,-47.57 330.52,-35.83"/>
<polygon fill="grey" stroke="grey" stroke-width="2" points="331.23,-32.37 320.64,-32.47 328.98,-39 331.23,-32.37"/>
</g>
<!-- 3 -->
<g id="node4" class="node">
<title>3</title>
<path fill="none" stroke="#d88556" stroke-width="2" stroke-dasharray="5,2" d="M188.5,-401C188.5,-401 111.5,-401 111.5,-401 105.5,-401 99.5,-395 99.5,-389 99.5,-389 99.5,-372 99.5,-372 99.5,-366 105.5,-360 111.5,-360 111.5,-360 188.5,-360 188.5,-360 194.5,-360 200.5,-366 200.5,-372 200.5,-372 200.5,-389 200.5,-389 200.5,-395 194.5,-401 188.5,-401"/>
<text text-anchor="middle" x="150" y="-389" font-family="sans" font-size="10.00">getparams_batch</text>
<text text-anchor="middle" x="150" y="-378" font-family="sans" font-size="10.00">b: 1</text>
<text text-anchor="middle" x="150" y="-367" font-family="sans" font-size="10.00">p: test</text>
</g>
<!-- 3&#45;&gt;0 -->
<g id="edge3" class="edge">
<title>3&#45;&gt;0</title>
<path fill="none" stroke="grey" stroke-width="2" d="M101.8,-359.98C83.71,-350.97 63.93,-338.92 49,-324 17.06,-292.08 0,-280.15 0,-235 0,-235 0,-235 0,-161 0,-58.73 150.1,-30.1 230.89,-22.1"/>
<polygon fill="grey" stroke="grey" stroke-width="2" points="231.7,-25.54 241.34,-21.14 231.06,-18.57 231.7,-25.54"/>
</g>
<!-- 5 -->
<g id="node6" class="node">
<title>5</title>
<path fill="none" stroke="#56b1d8" stroke-width="2" stroke-dasharray="5,2" d="M165,-180C165,-180 135,-180 135,-180 129,-180 123,-174 123,-168 123,-168 123,-156 123,-156 123,-150 129,-144 135,-144 135,-144 165,-144 165,-144 171,-144 177,-150 177,-156 177,-156 177,-168 177,-168 177,-174 171,-180 165,-180"/>
<text text-anchor="middle" x="150" y="-159.5" font-family="sans" font-size="10.00">mutsim</text>
</g>
<!-- 3&#45;&gt;5 -->
<g id="edge13" class="edge">
<title>3&#45;&gt;5</title>
<path fill="none" stroke="grey" stroke-width="2" d="M150,-359.91C150,-321.15 150,-234.64 150,-190.32"/>
<polygon fill="grey" stroke="grey" stroke-width="2" points="153.5,-190.27 150,-180.27 146.5,-190.27 153.5,-190.27"/>
</g>
<!-- 6 -->
<g id="node7" class="node">
<title>6</title>
<path fill="none" stroke="#56b1d8" stroke-width="2" stroke-dasharray="5,2" d="M285,-180C285,-180 255,-180 255,-180 249,-180 243,-174 243,-168 243,-168 243,-156 243,-156 243,-150 249,-144 255,-144 255,-144 285,-144 285,-144 291,-144 297,-150 297,-156 297,-156 297,-168 297,-168 297,-174 291,-180 285,-180"/>
<text text-anchor="middle" x="270" y="-159.5" font-family="sans" font-size="10.00">mutsim</text>
</g>
<!-- 3&#45;&gt;6 -->
<g id="edge15" class="edge">
<title>3&#45;&gt;6</title>
<path fill="none" stroke="grey" stroke-width="2" d="M200.7,-371.75C229.17,-364.52 262.42,-350.62 280,-324 306.71,-283.55 292.73,-224.19 280.87,-189.99"/>
<polygon fill="grey" stroke="grey" stroke-width="2" points="284.03,-188.43 277.31,-180.23 277.45,-190.83 284.03,-188.43"/>
</g>
<!-- 7 -->
<g id="node8" class="node">
<title>7</title>
<path fill="none" stroke="#70d856" stroke-width="2" stroke-dasharray="5,2" d="M110,-252C110,-252 78,-252 78,-252 72,-252 66,-246 66,-240 66,-240 66,-228 66,-228 66,-222 72,-216 78,-216 78,-216 110,-216 110,-216 116,-216 122,-222 122,-228 122,-228 122,-240 122,-240 122,-246 116,-252 110,-252"/>
<text text-anchor="middle" x="94" y="-231.5" font-family="sans" font-size="10.00">forwsim</text>
</g>
<!-- 3&#45;&gt;7 -->
<g id="edge17" class="edge">
<title>3&#45;&gt;7</title>
<path fill="none" stroke="grey" stroke-width="2" d="M99.32,-361.26C82.83,-352.64 66.38,-340.51 57,-324 45.32,-303.43 57.82,-278.44 71.36,-260.19"/>
<polygon fill="grey" stroke="grey" stroke-width="2" points="74.12,-262.33 77.57,-252.31 68.63,-258 74.12,-262.33"/>
</g>
<!-- 8 -->
<g id="node9" class="node">
<title>8</title>
<path fill="none" stroke="#70d856" stroke-width="2" stroke-dasharray="5,2" d="M241,-252C241,-252 209,-252 209,-252 203,-252 197,-246 197,-240 197,-240 197,-228 197,-228 197,-222 203,-216 209,-216 209,-216 241,-216 241,-216 247,-216 253,-222 253,-228 253,-228 253,-240 253,-240 253,-246 247,-252 241,-252"/>
<text text-anchor="middle" x="225" y="-231.5" font-family="sans" font-size="10.00">forwsim</text>
</g>
<!-- 3&#45;&gt;8 -->
<g id="edge19" class="edge">
<title>3&#45;&gt;8</title>
<path fill="none" stroke="grey" stroke-width="2" d="M160.27,-359.71C173.54,-334.16 196.66,-289.6 211.38,-261.24"/>
<polygon fill="grey" stroke="grey" stroke-width="2" points="214.52,-262.78 216.02,-252.3 208.31,-259.56 214.52,-262.78"/>
</g>
<!-- 13 -->
<g id="node14" class="node">
<title>13</title>
<path fill="none" stroke="#ced856" stroke-width="2" stroke-dasharray="5,2" d="M109.5,-324C109.5,-324 78.5,-324 78.5,-324 72.5,-324 66.5,-318 66.5,-312 66.5,-312 66.5,-300 66.5,-300 66.5,-294 72.5,-288 78.5,-288 78.5,-288 109.5,-288 109.5,-288 115.5,-288 121.5,-294 121.5,-300 121.5,-300 121.5,-312 121.5,-312 121.5,-318 115.5,-324 109.5,-324"/>
<text text-anchor="middle" x="94" y="-309" font-family="sans" font-size="10.00">coalsim</text>
<text text-anchor="middle" x="94" y="-298" font-family="sans" font-size="10.00">s: 1</text>
</g>
<!-- 3&#45;&gt;13 -->
<g id="edge29" class="edge">
<title>3&#45;&gt;13</title>
<path fill="none" stroke="grey" stroke-width="2" d="M134.7,-359.69C128.22,-351.3 120.59,-341.42 113.7,-332.5"/>
<polygon fill="grey" stroke="grey" stroke-width="2" points="116.26,-330.09 107.38,-324.32 110.72,-334.37 116.26,-330.09"/>
</g>
<!-- 14 -->
<g id="node15" class="node">
<title>14</title>
<path fill="none" stroke="#ced856" stroke-width="2" stroke-dasharray="5,2" d="M259.5,-324C259.5,-324 228.5,-324 228.5,-324 222.5,-324 216.5,-318 216.5,-312 216.5,-312 216.5,-300 216.5,-300 216.5,-294 222.5,-288 228.5,-288 228.5,-288 259.5,-288 259.5,-288 265.5,-288 271.5,-294 271.5,-300 271.5,-300 271.5,-312 271.5,-312 271.5,-318 265.5,-324 259.5,-324"/>
<text text-anchor="middle" x="244" y="-309" font-family="sans" font-size="10.00">coalsim</text>
<text text-anchor="middle" x="244" y="-298" font-family="sans" font-size="10.00">s: 2</text>
</g>
<!-- 3&#45;&gt;14 -->
<g id="edge30" class="edge">
<title>3&#45;&gt;14</title>
<path fill="none" stroke="grey" stroke-width="2" d="M175.69,-359.69C187.43,-350.63 201.44,-339.83 213.7,-330.37"/>
<polygon fill="grey" stroke="grey" stroke-width="2" points="216.08,-332.96 221.86,-324.08 211.8,-327.41 216.08,-332.96"/>
</g>
<!-- 4 -->
<g id="node5" class="node">
<title>4</title>
<path fill="none" stroke="#d88556" stroke-width="2" stroke-dasharray="5,2" d="M526.5,-401C526.5,-401 449.5,-401 449.5,-401 443.5,-401 437.5,-395 437.5,-389 437.5,-389 437.5,-372 437.5,-372 437.5,-366 443.5,-360 449.5,-360 449.5,-360 526.5,-360 526.5,-360 532.5,-360 538.5,-366 538.5,-372 538.5,-372 538.5,-389 538.5,-389 538.5,-395 532.5,-401 526.5,-401"/>
<text text-anchor="middle" x="488" y="-389" font-family="sans" font-size="10.00">getparams_batch</text>
<text text-anchor="middle" x="488" y="-378" font-family="sans" font-size="10.00">b: 2</text>
<text text-anchor="middle" x="488" y="-367" font-family="sans" font-size="10.00">p: test</text>
</g>
<!-- 4&#45;&gt;0 -->
<g id="edge4" class="edge">
<title>4&#45;&gt;0</title>
<path fill="none" stroke="grey" stroke-width="2" d="M439.8,-359.98C421.71,-350.97 401.93,-338.92 387,-324 355.06,-292.08 338,-280.15 338,-235 338,-235 338,-235 338,-161 338,-117.8 315,-72.19 298.22,-44.66"/>
<polygon fill="grey" stroke="grey" stroke-width="2" points="301.09,-42.65 292.81,-36.04 295.17,-46.37 301.09,-42.65"/>
</g>
<!-- 9 -->
<g id="node10" class="node">
<title>9</title>
<path fill="none" stroke="#56b1d8" stroke-width="2" stroke-dasharray="5,2" d="M502,-180C502,-180 472,-180 472,-180 466,-180 460,-174 460,-168 460,-168 460,-156 460,-156 460,-150 466,-144 472,-144 472,-144 502,-144 502,-144 508,-144 514,-150 514,-156 514,-156 514,-168 514,-168 514,-174 508,-180 502,-180"/>
<text text-anchor="middle" x="487" y="-159.5" font-family="sans" font-size="10.00">mutsim</text>
</g>
<!-- 4&#45;&gt;9 -->
<g id="edge21" class="edge">
<title>4&#45;&gt;9</title>
<path fill="none" stroke="grey" stroke-width="2" d="M487.91,-359.91C487.73,-321.15 487.33,-234.64 487.13,-190.32"/>
<polygon fill="grey" stroke="grey" stroke-width="2" points="490.63,-190.25 487.08,-180.27 483.63,-190.29 490.63,-190.25"/>
</g>
<!-- 10 -->
<g id="node11" class="node">
<title>10</title>
<path fill="none" stroke="#56b1d8" stroke-width="2" stroke-dasharray="5,2" d="M612,-180C612,-180 582,-180 582,-180 576,-180 570,-174 570,-168 570,-168 570,-156 570,-156 570,-150 576,-144 582,-144 582,-144 612,-144 612,-144 618,-144 624,-150 624,-156 624,-156 624,-168 624,-168 624,-174 618,-180 612,-180"/>
<text text-anchor="middle" x="597" y="-159.5" font-family="sans" font-size="10.00">mutsim</text>
</g>
<!-- 4&#45;&gt;10 -->
<g id="edge23" class="edge">
<title>4&#45;&gt;10</title>
<path fill="none" stroke="grey" stroke-width="2" d="M538.75,-371.94C567.51,-364.77 601.2,-350.87 619,-324 646.08,-283.11 626.24,-223.51 610.71,-189.47"/>
<polygon fill="grey" stroke="grey" stroke-width="2" points="613.75,-187.7 606.29,-180.18 607.43,-190.71 613.75,-187.7"/>
</g>
<!-- 11 -->
<g id="node12" class="node">
<title>11</title>
<path fill="none" stroke="#70d856" stroke-width="2" stroke-dasharray="5,2" d="M448,-252C448,-252 416,-252 416,-252 410,-252 404,-246 404,-240 404,-240 404,-228 404,-228 404,-222 410,-216 416,-216 416,-216 448,-216 448,-216 454,-216 460,-222 460,-228 460,-228 460,-240 460,-240 460,-246 454,-252 448,-252"/>
<text text-anchor="middle" x="432" y="-231.5" font-family="sans" font-size="10.00">forwsim</text>
</g>
<!-- 4&#45;&gt;11 -->
<g id="edge25" class="edge">
<title>4&#45;&gt;11</title>
<path fill="none" stroke="grey" stroke-width="2" d="M437.36,-360.88C421.22,-352.27 405.17,-340.24 396,-324 384.52,-303.67 396.38,-278.94 409.48,-260.71"/>
<polygon fill="grey" stroke="grey" stroke-width="2" points="412.6,-262.4 415.91,-252.34 407.04,-258.14 412.6,-262.4"/>
</g>
<!-- 12 -->
<g id="node13" class="node">
<title>12</title>
<path fill="none" stroke="#70d856" stroke-width="2" stroke-dasharray="5,2" d="M579,-252C579,-252 547,-252 547,-252 541,-252 535,-246 535,-240 535,-240 535,-228 535,-228 535,-222 541,-216 547,-216 547,-216 579,-216 579,-216 585,-216 591,-222 591,-228 591,-228 591,-240 591,-240 591,-246 585,-252 579,-252"/>
<text text-anchor="middle" x="563" y="-231.5" font-family="sans" font-size="10.00">forwsim</text>
</g>
<!-- 4&#45;&gt;12 -->
<g id="edge27" class="edge">
<title>4&#45;&gt;12</title>
<path fill="none" stroke="grey" stroke-width="2" d="M498.27,-359.71C511.54,-334.16 534.66,-289.6 549.38,-261.24"/>
<polygon fill="grey" stroke="grey" stroke-width="2" points="552.52,-262.78 554.02,-252.3 546.31,-259.56 552.52,-262.78"/>
</g>
<!-- 15 -->
<g id="node16" class="node">
<title>15</title>
<path fill="none" stroke="#ced856" stroke-width="2" stroke-dasharray="5,2" d="M447.5,-324C447.5,-324 416.5,-324 416.5,-324 410.5,-324 404.5,-318 404.5,-312 404.5,-312 404.5,-300 404.5,-300 404.5,-294 410.5,-288 416.5,-288 416.5,-288 447.5,-288 447.5,-288 453.5,-288 459.5,-294 459.5,-300 459.5,-300 459.5,-312 459.5,-312 459.5,-318 453.5,-324 447.5,-324"/>
<text text-anchor="middle" x="432" y="-309" font-family="sans" font-size="10.00">coalsim</text>
<text text-anchor="middle" x="432" y="-298" font-family="sans" font-size="10.00">s: 1</text>
</g>
<!-- 4&#45;&gt;15 -->
<g id="edge31" class="edge">
<title>4&#45;&gt;15</title>
<path fill="none" stroke="grey" stroke-width="2" d="M472.7,-359.69C466.22,-351.3 458.59,-341.42 451.7,-332.5"/>
<polygon fill="grey" stroke="grey" stroke-width="2" points="454.26,-330.09 445.38,-324.32 448.72,-334.37 454.26,-330.09"/>
</g>
<!-- 16 -->
<g id="node17" class="node">
<title>16</title>
<path fill="none" stroke="#ced856" stroke-width="2" stroke-dasharray="5,2" d="M597.5,-324C597.5,-324 566.5,-324 566.5,-324 560.5,-324 554.5,-318 554.5,-312 554.5,-312 554.5,-300 554.5,-300 554.5,-294 560.5,-288 566.5,-288 566.5,-288 597.5,-288 597.5,-288 603.5,-288 609.5,-294 609.5,-300 609.5,-300 609.5,-312 609.5,-312 609.5,-318 603.5,-324 597.5,-324"/>
<text text-anchor="middle" x="582" y="-309" font-family="sans" font-size="10.00">coalsim</text>
<text text-anchor="middle" x="582" y="-298" font-family="sans" font-size="10.00">s: 2</text>
</g>
<!-- 4&#45;&gt;16 -->
<g id="edge32" class="edge">
<title>4&#45;&gt;16</title>
<path fill="none" stroke="grey" stroke-width="2" d="M513.69,-359.69C525.43,-350.63 539.44,-339.83 551.7,-330.37"/>
<polygon fill="grey" stroke="grey" stroke-width="2" points="554.08,-332.96 559.86,-324.08 549.8,-327.41 554.08,-332.96"/>
</g>
<!-- 5&#45;&gt;1 -->
<g id="edge5" class="edge">
<title>5&#45;&gt;1</title>
<path fill="none" stroke="grey" stroke-width="2" d="M166.07,-143.7C173.94,-135.22 183.56,-124.86 192.17,-115.58"/>
<polygon fill="grey" stroke="grey" stroke-width="2" points="194.88,-117.81 199.12,-108.1 189.75,-113.05 194.88,-117.81"/>
</g>
<!-- 6&#45;&gt;1 -->
<g id="edge6" class="edge">
<title>6&#45;&gt;1</title>
<path fill="none" stroke="grey" stroke-width="2" d="M256.4,-143.7C249.88,-135.39 241.93,-125.28 234.75,-116.14"/>
<polygon fill="grey" stroke="grey" stroke-width="2" points="237.37,-113.81 228.44,-108.1 231.87,-118.13 237.37,-113.81"/>
</g>
<!-- 7&#45;&gt;1 -->
<g id="edge7" class="edge">
<title>7&#45;&gt;1</title>
<path fill="none" stroke="grey" stroke-width="2" d="M93.73,-215.82C94.3,-196.47 97.9,-164.99 114,-144 126.26,-128.01 144.74,-116.36 162.55,-108.12"/>
<polygon fill="grey" stroke="grey" stroke-width="2" points="163.98,-111.31 171.76,-104.12 161.19,-104.89 163.98,-111.31"/>
</g>
<!-- 7&#45;&gt;5 -->
<g id="edge14" class="edge">
<title>7&#45;&gt;5</title>
<path fill="none" stroke="grey" stroke-width="2" d="M107.84,-215.7C114.49,-207.39 122.58,-197.28 129.89,-188.14"/>
<polygon fill="grey" stroke="grey" stroke-width="2" points="132.8,-190.1 136.32,-180.1 127.34,-185.73 132.8,-190.1"/>
</g>
<!-- 8&#45;&gt;1 -->
<g id="edge8" class="edge">
<title>8&#45;&gt;1</title>
<path fill="none" stroke="grey" stroke-width="2" d="M223.79,-215.87C222.09,-191.67 218.96,-147.21 216.93,-118.39"/>
<polygon fill="grey" stroke="grey" stroke-width="2" points="220.4,-117.92 216.21,-108.19 213.42,-118.41 220.4,-117.92"/>
</g>
<!-- 8&#45;&gt;6 -->
<g id="edge16" class="edge">
<title>8&#45;&gt;6</title>
<path fill="none" stroke="grey" stroke-width="2" d="M236.12,-215.7C241.36,-207.56 247.7,-197.69 253.48,-188.7"/>
<polygon fill="grey" stroke="grey" stroke-width="2" points="256.54,-190.41 259,-180.1 250.65,-186.62 256.54,-190.41"/>
</g>
<!-- 9&#45;&gt;2 -->
<g id="edge9" class="edge">
<title>9&#45;&gt;2</title>
<path fill="none" stroke="grey" stroke-width="2" d="M487,-143.7C487,-135.98 487,-126.71 487,-118.11"/>
<polygon fill="grey" stroke="grey" stroke-width="2" points="490.5,-118.1 487,-108.1 483.5,-118.1 490.5,-118.1"/>
</g>
<!-- 10&#45;&gt;2 -->
<g id="edge10" class="edge">
<title>10&#45;&gt;2</title>
<path fill="none" stroke="grey" stroke-width="2" d="M570.09,-143.88C555.84,-134.81 538.15,-123.55 522.76,-113.76"/>
<polygon fill="grey" stroke="grey" stroke-width="2" points="524.33,-110.61 514.01,-108.19 520.57,-116.51 524.33,-110.61"/>
</g>
<!-- 11&#45;&gt;2 -->
<g id="edge11" class="edge">
<title>11&#45;&gt;2</title>
<path fill="none" stroke="grey" stroke-width="2" d="M433.7,-215.67C435.95,-197.29 440.89,-167.69 451,-144 455.08,-134.43 460.99,-124.78 466.84,-116.39"/>
<polygon fill="grey" stroke="grey" stroke-width="2" points="469.78,-118.29 472.84,-108.15 464.12,-114.17 469.78,-118.29"/>
</g>
<!-- 11&#45;&gt;9 -->
<g id="edge22" class="edge">
<title>11&#45;&gt;9</title>
<path fill="none" stroke="grey" stroke-width="2" d="M445.6,-215.7C452.12,-207.39 460.07,-197.28 467.25,-188.14"/>
<polygon fill="grey" stroke="grey" stroke-width="2" points="470.13,-190.13 473.56,-180.1 464.63,-185.81 470.13,-190.13"/>
</g>
<!-- 12&#45;&gt;2 -->
<g id="edge12" class="edge">
<title>12&#45;&gt;2</title>
<path fill="none" stroke="grey" stroke-width="2" d="M556.33,-215.84C549,-197.6 536.47,-168.11 523,-144 517.85,-134.78 511.56,-125.1 505.69,-116.58"/>
<polygon fill="grey" stroke="grey" stroke-width="2" points="508.4,-114.35 499.79,-108.18 502.68,-118.37 508.4,-114.35"/>
</g>
<!-- 12&#45;&gt;10 -->
<g id="edge24" class="edge">
<title>12&#45;&gt;10</title>
<path fill="none" stroke="grey" stroke-width="2" d="M571.4,-215.7C575.27,-207.73 579.95,-198.1 584.24,-189.26"/>
<polygon fill="grey" stroke="grey" stroke-width="2" points="587.47,-190.63 588.69,-180.1 581.17,-187.57 587.47,-190.63"/>
</g>
<!-- 13&#45;&gt;7 -->
<g id="edge18" class="edge">
<title>13&#45;&gt;7</title>
<path fill="none" stroke="grey" stroke-width="2" d="M94,-287.7C94,-279.98 94,-270.71 94,-262.11"/>
<polygon fill="grey" stroke="grey" stroke-width="2" points="97.5,-262.1 94,-252.1 90.5,-262.1 97.5,-262.1"/>
</g>
<!-- 14&#45;&gt;8 -->
<g id="edge20" class="edge">
<title>14&#45;&gt;8</title>
<path fill="none" stroke="grey" stroke-width="2" d="M239.3,-287.7C237.19,-279.9 234.64,-270.51 232.28,-261.83"/>
<polygon fill="grey" stroke="grey" stroke-width="2" points="235.64,-260.84 229.64,-252.1 228.88,-262.67 235.64,-260.84"/>
</g>
<!-- 15&#45;&gt;11 -->
<g id="edge26" class="edge">
<title>15&#45;&gt;11</title>
<path fill="none" stroke="grey" stroke-width="2" d="M432,-287.7C432,-279.98 432,-270.71 432,-262.11"/>
<polygon fill="grey" stroke="grey" stroke-width="2" points="435.5,-262.1 432,-252.1 428.5,-262.1 435.5,-262.1"/>
</g>
<!-- 16&#45;&gt;12 -->
<g id="edge28" class="edge">
<title>16&#45;&gt;12</title>
<path fill="none" stroke="grey" stroke-width="2" d="M577.3,-287.7C575.19,-279.9 572.64,-270.51 570.28,-261.83"/>
<polygon fill="grey" stroke="grey" stroke-width="2" points="573.64,-260.84 567.64,-252.1 566.88,-262.67 573.64,-260.84"/>
</g>
</g>
</svg>
