<?xml version="1.0" encoding="UTF-8" standalone="no"?>
<!DOCTYPE svg PUBLIC "-//W3C//DTD SVG 1.1//EN"
 "http://www.w3.org/Graphics/SVG/1.1/DTD/svg11.dtd">
<!-- Generated by graphviz version 2.43.0 (0)
 -->
<!-- Title: snakemake_dag Pages: 1 -->
<svg width="733pt" height="409pt"
 viewBox="0.00 0.00 733.37 409.00" xmlns="http://www.w3.org/2000/svg" xmlns:xlink="http://www.w3.org/1999/xlink">
<g id="graph0" class="graph" transform="scale(1 1) rotate(0) translate(4 405)">
<title>snakemake_dag</title>
<polygon fill="white" stroke="transparent" points="-4,4 -4,-405 729.37,-405 729.37,4 -4,4"/>
<!-- 0 -->
<g id="node1" class="node">
<title>0</title>
<path fill="none" stroke="#ced856" stroke-width="2" stroke-dasharray="5,2" d="M338.37,-36C338.37,-36 283.37,-36 283.37,-36 277.37,-36 271.37,-30 271.37,-24 271.37,-24 271.37,-12 271.37,-12 271.37,-6 277.37,0 283.37,0 283.37,0 338.37,0 338.37,0 344.37,0 350.37,-6 350.37,-12 350.37,-12 350.37,-24 350.37,-24 350.37,-30 344.37,-36 338.37,-36"/>
<text text-anchor="middle" x="310.87" y="-15.5" font-family="sans" font-size="10.00">afforestation</text>
</g>
<!-- 1 -->
<g id="node2" class="node">
<title>1</title>
<path fill="none" stroke="#9fd856" stroke-width="2" stroke-dasharray="5,2" d="M247.87,-108C247.87,-108 185.87,-108 185.87,-108 179.87,-108 173.87,-102 173.87,-96 173.87,-96 173.87,-84 173.87,-84 173.87,-78 179.87,-72 185.87,-72 185.87,-72 247.87,-72 247.87,-72 253.87,-72 259.87,-78 259.87,-84 259.87,-84 259.87,-96 259.87,-96 259.87,-102 253.87,-108 247.87,-108"/>
<text text-anchor="middle" x="216.87" y="-87.5" font-family="sans" font-size="10.00">reftable_batch</text>
</g>
<!-- 1&#45;&gt;0 -->
<g id="edge1" class="edge">
<title>1&#45;&gt;0</title>
<path fill="none" stroke="grey" stroke-width="2" d="M240.1,-71.7C252.06,-62.8 266.79,-51.82 279.71,-42.2"/>
<polygon fill="grey" stroke="grey" stroke-width="2" points="281.97,-44.88 287.9,-36.1 277.79,-39.27 281.97,-44.88"/>
</g>
<!-- 2 -->
<g id="node3" class="node">
<title>2</title>
<path fill="none" stroke="#9fd856" stroke-width="2" stroke-dasharray="5,2" d="M568.87,-108C568.87,-108 506.87,-108 506.87,-108 500.87,-108 494.87,-102 494.87,-96 494.87,-96 494.87,-84 494.87,-84 494.87,-78 500.87,-72 506.87,-72 506.87,-72 568.87,-72 568.87,-72 574.87,-72 580.87,-78 580.87,-84 580.87,-84 580.87,-96 580.87,-96 580.87,-102 574.87,-108 568.87,-108"/>
<text text-anchor="middle" x="537.87" y="-87.5" font-family="sans" font-size="10.00">reftable_batch</text>
</g>
<!-- 2&#45;&gt;0 -->
<g id="edge2" class="edge">
<title>2&#45;&gt;0</title>
<path fill="none" stroke="grey" stroke-width="2" d="M494.64,-75.67C456.25,-63.83 400.19,-46.54 360.09,-34.18"/>
<polygon fill="grey" stroke="grey" stroke-width="2" points="361.11,-30.83 350.52,-31.23 359.04,-37.52 361.11,-30.83"/>
</g>
<!-- 3 -->
<g id="node4" class="node">
<title>3</title>
<path fill="none" stroke="#5682d8" stroke-width="2" stroke-dasharray="5,2" d="M209.37,-401C209.37,-401 132.37,-401 132.37,-401 126.37,-401 120.37,-395 120.37,-389 120.37,-389 120.37,-372 120.37,-372 120.37,-366 126.37,-360 132.37,-360 132.37,-360 209.37,-360 209.37,-360 215.37,-360 221.37,-366 221.37,-372 221.37,-372 221.37,-389 221.37,-389 221.37,-395 215.37,-401 209.37,-401"/>
<text text-anchor="middle" x="170.87" y="-389" font-family="sans" font-size="10.00">getparams_batch</text>
<text text-anchor="middle" x="170.87" y="-378" font-family="sans" font-size="10.00">b: 1</text>
<text text-anchor="middle" x="170.87" y="-367" font-family="sans" font-size="10.00">p: test</text>
</g>
<!-- 3&#45;&gt;0 -->
<g id="edge3" class="edge">
<title>3&#45;&gt;0</title>
<path fill="none" stroke="grey" stroke-width="2" d="M120.26,-373.39C87.27,-366.74 45.85,-352.87 20.87,-324 -5.6,-293.42 1.87,-275.45 1.87,-235 1.87,-235 1.87,-235 1.87,-161 1.87,-48.38 173.42,-24.75 260.87,-20.02"/>
<polygon fill="grey" stroke="grey" stroke-width="2" points="261.28,-23.51 271.1,-19.54 260.95,-16.52 261.28,-23.51"/>
</g>
<!-- 3&#45;&gt;1 -->
<g id="edge7" class="edge">
<title>3&#45;&gt;1</title>
<path fill="none" stroke="grey" stroke-width="2" d="M174.03,-359.67C182.08,-309.2 203.35,-175.8 212.54,-118.16"/>
<polygon fill="grey" stroke="grey" stroke-width="2" points="216.04,-118.43 214.16,-108.01 209.12,-117.33 216.04,-118.43"/>
</g>
<!-- 5 -->
<g id="node6" class="node">
<title>5</title>
<path fill="none" stroke="#70d856" stroke-width="2" stroke-dasharray="5,2" d="M259.87,-180C259.87,-180 229.87,-180 229.87,-180 223.87,-180 217.87,-174 217.87,-168 217.87,-168 217.87,-156 217.87,-156 217.87,-150 223.87,-144 229.87,-144 229.87,-144 259.87,-144 259.87,-144 265.87,-144 271.87,-150 271.87,-156 271.87,-156 271.87,-168 271.87,-168 271.87,-174 265.87,-180 259.87,-180"/>
<text text-anchor="middle" x="244.87" y="-159.5" font-family="sans" font-size="10.00">mutsim</text>
</g>
<!-- 3&#45;&gt;5 -->
<g id="edge11" class="edge">
<title>3&#45;&gt;5</title>
<path fill="none" stroke="grey" stroke-width="2" d="M184.39,-359.93C191.02,-349.61 198.67,-336.53 203.87,-324 222.52,-278.99 234.41,-223.29 240.34,-190.6"/>
<polygon fill="grey" stroke="grey" stroke-width="2" points="243.84,-190.9 242.12,-180.44 236.94,-189.68 243.84,-190.9"/>
</g>
<!-- 6 -->
<g id="node7" class="node">
<title>6</title>
<path fill="none" stroke="#70d856" stroke-width="2" stroke-dasharray="5,2" d="M149.87,-180C149.87,-180 119.87,-180 119.87,-180 113.87,-180 107.87,-174 107.87,-168 107.87,-168 107.87,-156 107.87,-156 107.87,-150 113.87,-144 119.87,-144 119.87,-144 149.87,-144 149.87,-144 155.87,-144 161.87,-150 161.87,-156 161.87,-156 161.87,-168 161.87,-168 161.87,-174 155.87,-180 149.87,-180"/>
<text text-anchor="middle" x="134.87" y="-159.5" font-family="sans" font-size="10.00">mutsim</text>
</g>
<!-- 3&#45;&gt;6 -->
<g id="edge13" class="edge">
<title>3&#45;&gt;6</title>
<path fill="none" stroke="grey" stroke-width="2" d="M167.61,-359.91C161.16,-321.15 146.78,-234.64 139.41,-190.32"/>
<polygon fill="grey" stroke="grey" stroke-width="2" points="142.83,-189.56 137.74,-180.27 135.93,-190.71 142.83,-189.56"/>
</g>
<!-- 9 -->
<g id="node10" class="node">
<title>9</title>
<path fill="none" stroke="#56b1d8" stroke-width="2" stroke-dasharray="5,2" d="M299.87,-252C299.87,-252 267.87,-252 267.87,-252 261.87,-252 255.87,-246 255.87,-240 255.87,-240 255.87,-228 255.87,-228 255.87,-222 261.87,-216 267.87,-216 267.87,-216 299.87,-216 299.87,-216 305.87,-216 311.87,-222 311.87,-228 311.87,-228 311.87,-240 311.87,-240 311.87,-246 305.87,-252 299.87,-252"/>
<text text-anchor="middle" x="283.87" y="-231.5" font-family="sans" font-size="10.00">forwsim</text>
</g>
<!-- 3&#45;&gt;9 -->
<g id="edge19" class="edge">
<title>3&#45;&gt;9</title>
<path fill="none" stroke="grey" stroke-width="2" d="M202.25,-359.82C215.7,-350.24 230.83,-337.81 241.87,-324 256.87,-305.22 268.07,-280.19 275.12,-261.47"/>
<polygon fill="grey" stroke="grey" stroke-width="2" points="278.41,-262.64 278.51,-252.05 271.83,-260.27 278.41,-262.64"/>
</g>
<!-- 10 -->
<g id="node11" class="node">
<title>10</title>
<path fill="none" stroke="#56b1d8" stroke-width="2" stroke-dasharray="5,2" d="M111.87,-252C111.87,-252 79.87,-252 79.87,-252 73.87,-252 67.87,-246 67.87,-240 67.87,-240 67.87,-228 67.87,-228 67.87,-222 73.87,-216 79.87,-216 79.87,-216 111.87,-216 111.87,-216 117.87,-216 123.87,-222 123.87,-228 123.87,-228 123.87,-240 123.87,-240 123.87,-246 117.87,-252 111.87,-252"/>
<text text-anchor="middle" x="95.87" y="-231.5" font-family="sans" font-size="10.00">forwsim</text>
</g>
<!-- 3&#45;&gt;10 -->
<g id="edge21" class="edge">
<title>3&#45;&gt;10</title>
<path fill="none" stroke="grey" stroke-width="2" d="M158.64,-359.98C152.21,-349.46 144.34,-336.17 137.87,-324 126.9,-303.38 115.67,-279.41 107.59,-261.54"/>
<polygon fill="grey" stroke="grey" stroke-width="2" points="110.73,-259.99 103.44,-252.3 104.34,-262.86 110.73,-259.99"/>
</g>
<!-- 13 -->
<g id="node14" class="node">
<title>13</title>
<path fill="none" stroke="#d8b456" stroke-width="2" stroke-dasharray="5,2" d="M337.37,-324C337.37,-324 306.37,-324 306.37,-324 300.37,-324 294.37,-318 294.37,-312 294.37,-312 294.37,-300 294.37,-300 294.37,-294 300.37,-288 306.37,-288 306.37,-288 337.37,-288 337.37,-288 343.37,-288 349.37,-294 349.37,-300 349.37,-300 349.37,-312 349.37,-312 349.37,-318 343.37,-324 337.37,-324"/>
<text text-anchor="middle" x="321.87" y="-309" font-family="sans" font-size="10.00">coalsim</text>
<text text-anchor="middle" x="321.87" y="-298" font-family="sans" font-size="10.00">s: 1</text>
</g>
<!-- 3&#45;&gt;13 -->
<g id="edge27" class="edge">
<title>3&#45;&gt;13</title>
<path fill="none" stroke="grey" stroke-width="2" d="M211.73,-359.88C234.66,-348.87 263.03,-335.25 285.23,-324.59"/>
<polygon fill="grey" stroke="grey" stroke-width="2" points="286.83,-327.7 294.33,-320.22 283.8,-321.39 286.83,-327.7"/>
</g>
<!-- 14 -->
<g id="node15" class="node">
<title>14</title>
<path fill="none" stroke="#d8b456" stroke-width="2" stroke-dasharray="5,2" d="M73.37,-324C73.37,-324 42.37,-324 42.37,-324 36.37,-324 30.37,-318 30.37,-312 30.37,-312 30.37,-300 30.37,-300 30.37,-294 36.37,-288 42.37,-288 42.37,-288 73.37,-288 73.37,-288 79.37,-288 85.37,-294 85.37,-300 85.37,-300 85.37,-312 85.37,-312 85.37,-318 79.37,-324 73.37,-324"/>
<text text-anchor="middle" x="57.87" y="-309" font-family="sans" font-size="10.00">coalsim</text>
<text text-anchor="middle" x="57.87" y="-298" font-family="sans" font-size="10.00">s: 2</text>
</g>
<!-- 3&#45;&gt;14 -->
<g id="edge28" class="edge">
<title>3&#45;&gt;14</title>
<path fill="none" stroke="grey" stroke-width="2" d="M140.29,-359.88C125.75,-350.56 108.3,-339.36 93.2,-329.67"/>
<polygon fill="grey" stroke="grey" stroke-width="2" points="94.93,-326.62 84.62,-324.17 91.15,-332.51 94.93,-326.62"/>
</g>
<!-- 4 -->
<g id="node5" class="node">
<title>4</title>
<path fill="none" stroke="#5682d8" stroke-width="2" stroke-dasharray="5,2" d="M585.37,-401C585.37,-401 508.37,-401 508.37,-401 502.37,-401 496.37,-395 496.37,-389 496.37,-389 496.37,-372 496.37,-372 496.37,-366 502.37,-360 508.37,-360 508.37,-360 585.37,-360 585.37,-360 591.37,-360 597.37,-366 597.37,-372 597.37,-372 597.37,-389 597.37,-389 597.37,-395 591.37,-401 585.37,-401"/>
<text text-anchor="middle" x="546.87" y="-389" font-family="sans" font-size="10.00">getparams_batch</text>
<text text-anchor="middle" x="546.87" y="-378" font-family="sans" font-size="10.00">b: 2</text>
<text text-anchor="middle" x="546.87" y="-367" font-family="sans" font-size="10.00">p: test</text>
</g>
<!-- 4&#45;&gt;0 -->
<g id="edge4" class="edge">
<title>4&#45;&gt;0</title>
<path fill="none" stroke="grey" stroke-width="2" d="M496.26,-373.39C463.27,-366.74 421.85,-352.87 396.87,-324 370.4,-293.42 377.87,-275.45 377.87,-235 377.87,-235 377.87,-235 377.87,-161 377.87,-116.73 350.9,-71.47 331.18,-44.3"/>
<polygon fill="grey" stroke="grey" stroke-width="2" points="333.87,-42.05 325.08,-36.14 328.26,-46.25 333.87,-42.05"/>
</g>
<!-- 4&#45;&gt;2 -->
<g id="edge10" class="edge">
<title>4&#45;&gt;2</title>
<path fill="none" stroke="grey" stroke-width="2" d="M548.02,-359.91C550.15,-319.47 553.88,-223.83 546.87,-144 546.12,-135.5 544.76,-126.32 543.32,-118.02"/>
<polygon fill="grey" stroke="grey" stroke-width="2" points="546.75,-117.29 541.49,-108.1 539.86,-118.56 546.75,-117.29"/>
</g>
<!-- 7 -->
<g id="node8" class="node">
<title>7</title>
<path fill="none" stroke="#70d856" stroke-width="2" stroke-dasharray="5,2" d="M635.87,-180C635.87,-180 605.87,-180 605.87,-180 599.87,-180 593.87,-174 593.87,-168 593.87,-168 593.87,-156 593.87,-156 593.87,-150 599.87,-144 605.87,-144 605.87,-144 635.87,-144 635.87,-144 641.87,-144 647.87,-150 647.87,-156 647.87,-156 647.87,-168 647.87,-168 647.87,-174 641.87,-180 635.87,-180"/>
<text text-anchor="middle" x="620.87" y="-159.5" font-family="sans" font-size="10.00">mutsim</text>
</g>
<!-- 4&#45;&gt;7 -->
<g id="edge15" class="edge">
<title>4&#45;&gt;7</title>
<path fill="none" stroke="grey" stroke-width="2" d="M560.39,-359.93C567.02,-349.61 574.67,-336.53 579.87,-324 598.52,-278.99 610.41,-223.29 616.34,-190.6"/>
<polygon fill="grey" stroke="grey" stroke-width="2" points="619.84,-190.9 618.12,-180.44 612.94,-189.68 619.84,-190.9"/>
</g>
<!-- 8 -->
<g id="node9" class="node">
<title>8</title>
<path fill="none" stroke="#70d856" stroke-width="2" stroke-dasharray="5,2" d="M525.87,-180C525.87,-180 495.87,-180 495.87,-180 489.87,-180 483.87,-174 483.87,-168 483.87,-168 483.87,-156 483.87,-156 483.87,-150 489.87,-144 495.87,-144 495.87,-144 525.87,-144 525.87,-144 531.87,-144 537.87,-150 537.87,-156 537.87,-156 537.87,-168 537.87,-168 537.87,-174 531.87,-180 525.87,-180"/>
<text text-anchor="middle" x="510.87" y="-159.5" font-family="sans" font-size="10.00">mutsim</text>
</g>
<!-- 4&#45;&gt;8 -->
<g id="edge17" class="edge">
<title>4&#45;&gt;8</title>
<path fill="none" stroke="grey" stroke-width="2" d="M543.61,-359.91C537.16,-321.15 522.78,-234.64 515.41,-190.32"/>
<polygon fill="grey" stroke="grey" stroke-width="2" points="518.83,-189.56 513.74,-180.27 511.93,-190.71 518.83,-189.56"/>
</g>
<!-- 11 -->
<g id="node12" class="node">
<title>11</title>
<path fill="none" stroke="#56b1d8" stroke-width="2" stroke-dasharray="5,2" d="M675.87,-252C675.87,-252 643.87,-252 643.87,-252 637.87,-252 631.87,-246 631.87,-240 631.87,-240 631.87,-228 631.87,-228 631.87,-222 637.87,-216 643.87,-216 643.87,-216 675.87,-216 675.87,-216 681.87,-216 687.87,-222 687.87,-228 687.87,-228 687.87,-240 687.87,-240 687.87,-246 681.87,-252 675.87,-252"/>
<text text-anchor="middle" x="659.87" y="-231.5" font-family="sans" font-size="10.00">forwsim</text>
</g>
<!-- 4&#45;&gt;11 -->
<g id="edge23" class="edge">
<title>4&#45;&gt;11</title>
<path fill="none" stroke="grey" stroke-width="2" d="M578.25,-359.82C591.7,-350.24 606.83,-337.81 617.87,-324 632.87,-305.22 644.07,-280.19 651.12,-261.47"/>
<polygon fill="grey" stroke="grey" stroke-width="2" points="654.41,-262.64 654.51,-252.05 647.83,-260.27 654.41,-262.64"/>
</g>
<!-- 12 -->
<g id="node13" class="node">
<title>12</title>
<path fill="none" stroke="#56b1d8" stroke-width="2" stroke-dasharray="5,2" d="M487.87,-252C487.87,-252 455.87,-252 455.87,-252 449.87,-252 443.87,-246 443.87,-240 443.87,-240 443.87,-228 443.87,-228 443.87,-222 449.87,-216 455.87,-216 455.87,-216 487.87,-216 487.87,-216 493.87,-216 499.87,-222 499.87,-228 499.87,-228 499.87,-240 499.87,-240 499.87,-246 493.87,-252 487.87,-252"/>
<text text-anchor="middle" x="471.87" y="-231.5" font-family="sans" font-size="10.00">forwsim</text>
</g>
<!-- 4&#45;&gt;12 -->
<g id="edge25" class="edge">
<title>4&#45;&gt;12</title>
<path fill="none" stroke="grey" stroke-width="2" d="M534.64,-359.98C528.21,-349.46 520.34,-336.17 513.87,-324 502.9,-303.38 491.67,-279.41 483.59,-261.54"/>
<polygon fill="grey" stroke="grey" stroke-width="2" points="486.73,-259.99 479.44,-252.3 480.34,-262.86 486.73,-259.99"/>
</g>
<!-- 15 -->
<g id="node16" class="node">
<title>15</title>
<path fill="none" stroke="#d8b456" stroke-width="2" stroke-dasharray="5,2" d="M713.37,-324C713.37,-324 682.37,-324 682.37,-324 676.37,-324 670.37,-318 670.37,-312 670.37,-312 670.37,-300 670.37,-300 670.37,-294 676.37,-288 682.37,-288 682.37,-288 713.37,-288 713.37,-288 719.37,-288 725.37,-294 725.37,-300 725.37,-300 725.37,-312 725.37,-312 725.37,-318 719.37,-324 713.37,-324"/>
<text text-anchor="middle" x="697.87" y="-309" font-family="sans" font-size="10.00">coalsim</text>
<text text-anchor="middle" x="697.87" y="-298" font-family="sans" font-size="10.00">s: 1</text>
</g>
<!-- 4&#45;&gt;15 -->
<g id="edge29" class="edge">
<title>4&#45;&gt;15</title>
<path fill="none" stroke="grey" stroke-width="2" d="M587.73,-359.88C610.66,-348.87 639.03,-335.25 661.23,-324.59"/>
<polygon fill="grey" stroke="grey" stroke-width="2" points="662.83,-327.7 670.33,-320.22 659.8,-321.39 662.83,-327.7"/>
</g>
<!-- 16 -->
<g id="node17" class="node">
<title>16</title>
<path fill="none" stroke="#d8b456" stroke-width="2" stroke-dasharray="5,2" d="M449.37,-324C449.37,-324 418.37,-324 418.37,-324 412.37,-324 406.37,-318 406.37,-312 406.37,-312 406.37,-300 406.37,-300 406.37,-294 412.37,-288 418.37,-288 418.37,-288 449.37,-288 449.37,-288 455.37,-288 461.37,-294 461.37,-300 461.37,-300 461.37,-312 461.37,-312 461.37,-318 455.37,-324 449.37,-324"/>
<text text-anchor="middle" x="433.87" y="-309" font-family="sans" font-size="10.00">coalsim</text>
<text text-anchor="middle" x="433.87" y="-298" font-family="sans" font-size="10.00">s: 2</text>
</g>
<!-- 4&#45;&gt;16 -->
<g id="edge30" class="edge">
<title>4&#45;&gt;16</title>
<path fill="none" stroke="grey" stroke-width="2" d="M516.29,-359.88C501.75,-350.56 484.3,-339.36 469.2,-329.67"/>
<polygon fill="grey" stroke="grey" stroke-width="2" points="470.93,-326.62 460.62,-324.17 467.15,-332.51 470.93,-326.62"/>
</g>
<!-- 5&#45;&gt;1 -->
<g id="edge5" class="edge">
<title>5&#45;&gt;1</title>
<path fill="none" stroke="grey" stroke-width="2" d="M237.95,-143.7C234.79,-135.81 230.99,-126.3 227.49,-117.55"/>
<polygon fill="grey" stroke="grey" stroke-width="2" points="230.67,-116.09 223.71,-108.1 224.17,-118.69 230.67,-116.09"/>
</g>
<!-- 6&#45;&gt;1 -->
<g id="edge6" class="edge">
<title>6&#45;&gt;1</title>
<path fill="none" stroke="grey" stroke-width="2" d="M155.14,-143.7C165.36,-134.97 177.93,-124.24 189.05,-114.75"/>
<polygon fill="grey" stroke="grey" stroke-width="2" points="191.5,-117.26 196.83,-108.1 186.95,-111.94 191.5,-117.26"/>
</g>
<!-- 7&#45;&gt;2 -->
<g id="edge8" class="edge">
<title>7&#45;&gt;2</title>
<path fill="none" stroke="grey" stroke-width="2" d="M600.35,-143.7C590,-134.97 577.28,-124.24 566.03,-114.75"/>
<polygon fill="grey" stroke="grey" stroke-width="2" points="568.05,-111.88 558.15,-108.1 563.54,-117.23 568.05,-111.88"/>
</g>
<!-- 8&#45;&gt;2 -->
<g id="edge9" class="edge">
<title>8&#45;&gt;2</title>
<path fill="none" stroke="grey" stroke-width="2" d="M517.54,-143.7C520.58,-135.81 524.25,-126.3 527.63,-117.55"/>
<polygon fill="grey" stroke="grey" stroke-width="2" points="530.94,-118.69 531.27,-108.1 524.41,-116.17 530.94,-118.69"/>
</g>
<!-- 9&#45;&gt;5 -->
<g id="edge12" class="edge">
<title>9&#45;&gt;5</title>
<path fill="none" stroke="grey" stroke-width="2" d="M274.23,-215.7C269.74,-207.64 264.31,-197.89 259.34,-188.98"/>
<polygon fill="grey" stroke="grey" stroke-width="2" points="262.32,-187.14 254.4,-180.1 256.21,-190.54 262.32,-187.14"/>
</g>
<!-- 10&#45;&gt;6 -->
<g id="edge14" class="edge">
<title>10&#45;&gt;6</title>
<path fill="none" stroke="grey" stroke-width="2" d="M105.51,-215.7C109.99,-207.64 115.43,-197.89 120.39,-188.98"/>
<polygon fill="grey" stroke="grey" stroke-width="2" points="123.53,-190.54 125.34,-180.1 117.41,-187.14 123.53,-190.54"/>
</g>
<!-- 11&#45;&gt;7 -->
<g id="edge16" class="edge">
<title>11&#45;&gt;7</title>
<path fill="none" stroke="grey" stroke-width="2" d="M650.23,-215.7C645.74,-207.64 640.31,-197.89 635.34,-188.98"/>
<polygon fill="grey" stroke="grey" stroke-width="2" points="638.32,-187.14 630.4,-180.1 632.21,-190.54 638.32,-187.14"/>
</g>
<!-- 12&#45;&gt;8 -->
<g id="edge18" class="edge">
<title>12&#45;&gt;8</title>
<path fill="none" stroke="grey" stroke-width="2" d="M481.51,-215.7C485.99,-207.64 491.43,-197.89 496.39,-188.98"/>
<polygon fill="grey" stroke="grey" stroke-width="2" points="499.53,-190.54 501.34,-180.1 493.41,-187.14 499.53,-190.54"/>
</g>
<!-- 13&#45;&gt;9 -->
<g id="edge20" class="edge">
<title>13&#45;&gt;9</title>
<path fill="none" stroke="grey" stroke-width="2" d="M312.47,-287.7C308.1,-279.64 302.81,-269.89 297.97,-260.98"/>
<polygon fill="grey" stroke="grey" stroke-width="2" points="301,-259.22 293.15,-252.1 294.85,-262.56 301,-259.22"/>
</g>
<!-- 14&#45;&gt;10 -->
<g id="edge22" class="edge">
<title>14&#45;&gt;10</title>
<path fill="none" stroke="grey" stroke-width="2" d="M67.26,-287.7C71.63,-279.64 76.92,-269.89 81.76,-260.98"/>
<polygon fill="grey" stroke="grey" stroke-width="2" points="84.89,-262.56 86.58,-252.1 78.73,-259.22 84.89,-262.56"/>
</g>
<!-- 15&#45;&gt;11 -->
<g id="edge24" class="edge">
<title>15&#45;&gt;11</title>
<path fill="none" stroke="grey" stroke-width="2" d="M688.47,-287.7C684.1,-279.64 678.81,-269.89 673.97,-260.98"/>
<polygon fill="grey" stroke="grey" stroke-width="2" points="677,-259.22 669.15,-252.1 670.85,-262.56 677,-259.22"/>
</g>
<!-- 16&#45;&gt;12 -->
<g id="edge26" class="edge">
<title>16&#45;&gt;12</title>
<path fill="none" stroke="grey" stroke-width="2" d="M443.26,-287.7C447.63,-279.64 452.92,-269.89 457.76,-260.98"/>
<polygon fill="grey" stroke="grey" stroke-width="2" points="460.89,-262.56 462.58,-252.1 454.73,-259.22 460.89,-262.56"/>
</g>
</g>
</svg>
